<?xml version="1.0" encoding="UTF-8" standalone="no"?>
<!-- Created with Inkscape (http://www.inkscape.org/) -->
<svg id="svg2" xmlns:rdf="http://www.w3.org/1999/02/22-rdf-syntax-ns#" xmlns="http://www.w3.org/2000/svg" height="67" width="65" version="1.1" xmlns:cc="http://creativecommons.org/ns#" xmlns:dc="http://purl.org/dc/elements/1.1/">
 <metadata id="metadata8">
  <rdf:RDF>
   <cc:Work rdf:about="">
    <dc:format>image/svg+xml</dc:format>
    <dc:type rdf:resource="http://purl.org/dc/dcmitype/StillImage"/>
    <dc:title/>
   </cc:Work>
  </rdf:RDF>
 </metadata>
 <rect id="rect5207" rx="1.178" ry="1.144" height="20.489" width="6.6503" y="27.631" x="18.778"/>
 <rect id="rect5209" rx="1.178" ry="1.144" height="32.082" width="6.6503" y="16.038" x="29.95"/>
 <rect id="rect5211" rx="1.178" ry="1.144" height="20.489" width="6.6503" y="27.631" x="40.325"/>
 <path id="path2986" style="block-progression:tb;text-indent:0;color:#000000;text-transform:none" d="m32.506 1.2076c-17.89 0-32.46 14.57-32.46 32.46s14.57 32.46 32.46 32.46c17.828 0 32.323-14.476 32.424-32.28a3.1601 3.1601 0 0 0 0.03591 -0.25135 3.1601 3.1601 0 0 0 0 -0.07181 3.1601 3.1601 0 0 0 0 -0.21544c-0.195-17.752-14.708-32.101-32.46-32.101zm0 6.3196c14.361 0 25.983 11.493 26.14 25.853a3.1601 3.1601 0 0 0 0 0.07181 3.1601 3.1601 0 0 0 0 0.21544c0 14.474-11.666 26.14-26.14 26.14s-26.14-11.666-26.14-26.14 11.666-26.14 26.14-26.14z"/>
</svg>
