<?xml version="1.0" encoding="UTF-8" standalone="no"?>
<!-- Created with Inkscape (http://www.inkscape.org/) -->
<svg id="svg11004" xmlns:rdf="http://www.w3.org/1999/02/22-rdf-syntax-ns#" xmlns="http://www.w3.org/2000/svg" height="62.371mm" width="307.98mm" version="1.1" xmlns:cc="http://creativecommons.org/ns#" xmlns:dc="http://purl.org/dc/elements/1.1/" viewBox="0 0 1091.25 221.00001">
 <metadata id="metadata11009">
  <rdf:RDF>
   <cc:Work rdf:about="">
    <dc:format>image/svg+xml</dc:format>
    <dc:type rdf:resource="http://purl.org/dc/dcmitype/StillImage"/>
    <dc:title/>
   </cc:Work>
  </rdf:RDF>
 </metadata>
 <g id="layer1" transform="translate(-4.5 40.638)">
  <g id="g10969" transform="translate(0 -201.35)">
   <path id="path10895" d="m9.5 235h260v86h52.5" style="color-rendering:auto;color:#000000;shape-rendering:auto;solid-color:#000000;stroke:#a8c74f;stroke-linecap:square;stroke-width:10;fill:none;mix-blend-mode:normal;image-rendering:auto;isolation:auto;paint-order:normal"/>
   <path id="path10239" d="m9.5 195h243.5v108h70" style="color-rendering:auto;color:#000000;shape-rendering:auto;solid-color:#000000;stroke:#c2754a;stroke-linecap:square;stroke-width:10;fill:none;mix-blend-mode:normal;image-rendering:auto;isolation:auto;paint-order:normal"/>
   <path id="path10241" d="m9.5 216h277.5v69h36" style="color-rendering:auto;color:#000000;shape-rendering:auto;solid-color:#000000;stroke:#c4ae4d;stroke-linecap:square;stroke-width:10;fill:none;mix-blend-mode:normal;image-rendering:auto;isolation:auto;paint-order:normal"/>
   <g id="g10897" style="fill:#418e64" transform="translate(-5,4)">
    <path id="rect7465-4" style="color:#000000;fill:#418e64" d="m398 281v25.031c0 2.3206-0.2349 4.9882-1.9688 7.3125-1.7339 2.3242-4.926 3.7728-9.2812 3.6562h-18.281l-4.6406 4.5h20.672l13.5 13.5v-13.5h4.5c2.493 0 4.5-2.007 4.5-4.5v-31.5c0-2.493-2.007-4.5-4.5-4.5z"/>
    <path id="rect7465" style="color:#000000;fill:#418e64" d="m348.5 272c-2.493 0-4.5 2.007-4.5 4.5v31.5c0 2.493 2.007 4.5 4.5 4.5h4.5v13.5l13.5-13.5h22.5c2.493 0 4.5-2.007 4.5-4.5v-31.5c0-2.493-2.007-4.5-4.5-4.5h-40.5zm13.5 9h4.5v4.5h4.5v-4.5h4.5v4.5h4.5v4.5h-4.5v4.5h4.5v4.5h-4.5v4.5h-4.5v-4.5h-4.5v4.5h-4.5v-4.5h-4.5v-4.5h4.5v-4.5h-4.5v-4.5h4.5v-4.5zm4.5 9v4.5h4.5v-4.5h-4.5z"/>
   </g>
   <path id="path10901" d="m421 283h31v-52h638.75" style="color-rendering:auto;color:#000000;shape-rendering:auto;solid-color:#000000;stroke:#a8c74f;stroke-linecap:square;stroke-width:10;fill:none;mix-blend-mode:normal;image-rendering:auto;isolation:auto;paint-order:normal"/>
   <path id="path10903" d="m421 301h57v-45h612.75" style="color-rendering:auto;color:#000000;shape-rendering:auto;solid-color:#000000;stroke:#c4ae4d;stroke-linecap:square;stroke-width:10;fill:none;mix-blend-mode:normal;image-rendering:auto;isolation:auto;paint-order:normal"/>
   <path id="path10905" d="m421 319h31v201.29" style="color-rendering:auto;color:#000000;shape-rendering:auto;solid-color:#000000;stroke:#c2754a;stroke-linecap:square;stroke-width:10;fill:none;mix-blend-mode:normal;image-rendering:auto;isolation:auto;paint-order:normal"/>
   <g id="g10963" style="fill:#a8c74f" transform="translate(-5,2)">
    <path id="path10965" d="m398 281v25.031c0 2.3206-0.2349 4.9882-1.9688 7.3125-1.7339 2.3242-4.926 3.7728-9.2812 3.6562h-18.281l-4.6406 4.5h20.672l13.5 13.5v-13.5h4.5c2.493 0 4.5-2.007 4.5-4.5v-31.5c0-2.493-2.007-4.5-4.5-4.5z" style="color:#000000;fill:#a8c74f"/>
    <path id="path10967" style="color:#000000;fill:#a8c74f" d="m348.5 272c-2.493 0-4.5 2.007-4.5 4.5v31.5c0 2.493 2.007 4.5 4.5 4.5h4.5v13.5l13.5-13.5h22.5c2.493 0 4.5-2.007 4.5-4.5v-31.5c0-2.493-2.007-4.5-4.5-4.5h-40.5zm13.5 9h4.5v4.5h4.5v-4.5h4.5v4.5h4.5v4.5h-4.5v4.5h4.5v4.5h-4.5v4.5h-4.5v-4.5h-4.5v4.5h-4.5v-4.5h-4.5v-4.5h4.5v-4.5h-4.5v-4.5h4.5v-4.5zm4.5 9v4.5h4.5v-4.5h-4.5z"/>
   </g>
  </g>
 </g>
</svg>
