<?xml version="1.0" encoding="UTF-8" standalone="no"?>
<!-- Created with Inkscape (http://www.inkscape.org/) -->
<svg id="svg3756" xmlns:rdf="http://www.w3.org/1999/02/22-rdf-syntax-ns#" xmlns="http://www.w3.org/2000/svg" height="48" width="48" version="1.0" xmlns:cc="http://creativecommons.org/ns#" xmlns:xlink="http://www.w3.org/1999/xlink" xmlns:dc="http://purl.org/dc/elements/1.1/">
 <metadata id="metadata14">
  <rdf:RDF>
   <cc:Work rdf:about="">
    <dc:format>image/svg+xml</dc:format>
    <dc:type rdf:resource="http://purl.org/dc/dcmitype/StillImage"/>
    <dc:title/>
   </cc:Work>
  </rdf:RDF>
 </metadata>
 <defs id="defs3758">
  <linearGradient id="linearGradient4203" y2="8" gradientUnits="userSpaceOnUse" x2="16" gradientTransform="matrix(-.00026857 -1.049 1.049 -.00026857 -50.019 56.026)" y1="45" x1="35">
   <stop id="stop252" stop-color="#9b9b9b" offset="0"/>
   <stop id="stop254" stop-color="#ececec" offset="1"/>
  </linearGradient>
  <linearGradient id="linearGradient2642-0" y2="17.857" gradientUnits="userSpaceOnUse" x2="9.999" y1="1.8574" x1="9.999">
   <stop id="stop802-0" stop-color="#ff6363" offset="0"/>
   <stop id="stop804-0" stop-color="#c00" offset="1"/>
  </linearGradient>
 </defs>
 <g id="layer1">
  <path id="path4214" style="opacity:.3" d="m22.438 1.0469c0.049-0.0011-0.28 0.0215-0.231 0.0156s-0.275 0.0496-0.227 0.0391c0.049-0.0106-0.269 0.0757-0.222 0.0605s-0.26 0.1017-0.215 0.082c0.045-0.0196-0.25 0.1255-0.207 0.1016s-0.236 0.1491-0.195 0.1211c0.04-0.028-0.222 0.1705-0.184 0.1387s-0.202 0.1935-0.168 0.1582c0.035-0.0353-0.185 0.2103-0.154 0.1718 0.031-0.0384-0.162 0.2269-0.135 0.1856s-0.14 0.2429-0.117 0.1992-0.114 0.2547-0.096 0.209c0.019-0.0457-0.09 0.2641-0.076 0.2168s-0.066 0.273-0.057 0.2246c0.01-0.0484-0.038 0.2757-0.033 0.2266s-0.01 0.2798-0.01 0.2304v3.8262 7.9221l-2.771-2.772c0.035 0.036-0.211-0.188-0.172-0.156s-0.229-0.168-0.188-0.141c0.042 0.028-0.245-0.142-0.201-0.119 0.044 0.024-0.257-0.118-0.211-0.099 0.047 0.019-0.266-0.093-0.218-0.078 0.047 0.014-0.276-0.067-0.227-0.057s-0.282-0.04-0.232-0.035c0.049 0.005-0.283-0.012-0.233-0.012s-0.282 0.017-0.232 0.012-0.282 0.045-0.233 0.035-0.274 0.071-0.226 0.057c0.048-0.015-0.265 0.097-0.219 0.078s-0.255 0.123-0.211 0.099c0.044-0.023-0.243 0.147-0.201 0.119 0.042-0.027-0.226 0.173-0.188 0.141 0.039-0.032-0.207 0.192-0.171 0.156l-2.286 2.285c0.036-0.035-0.188 0.211-0.156 0.172 0.032-0.038-0.168 0.229-0.14 0.188 0.027-0.042-0.143 0.245-0.12 0.201 0.024-0.044-0.118 0.257-0.099 0.211s-0.093 0.267-0.078 0.219c0.014-0.048-0.067 0.275-0.057 0.226s-0.04 0.282-0.035 0.233c0.005-0.05-0.012 0.282-0.012 0.232s0.017 0.282 0.012 0.233c-0.005-0.05 0.045 0.281 0.035 0.232s0.071 0.274 0.057 0.226c-0.015-0.047 0.097 0.265 0.078 0.219s0.123 0.255 0.099 0.211c-0.023-0.044 0.147 0.243 0.12 0.201-0.028-0.041 0.172 0.227 0.14 0.188s0.192 0.207 0.156 0.172l5.948 5.947-5.948 5.947c0.036-0.035-0.188 0.211-0.156 0.172s-0.168 0.229-0.14 0.188c0.027-0.042-0.143 0.245-0.12 0.201 0.024-0.044-0.118 0.257-0.099 0.211s-0.093 0.266-0.078 0.219c0.014-0.048-0.067 0.275-0.057 0.226s-0.04 0.282-0.035 0.232c0.005-0.049-0.012 0.283-0.012 0.233s0.017 0.282 0.012 0.232c-0.005-0.049 0.045 0.282 0.035 0.233s0.071 0.274 0.057 0.226c-0.015-0.048 0.097 0.265 0.078 0.219s0.123 0.255 0.099 0.211c-0.023-0.044 0.147 0.243 0.12 0.201-0.028-0.041 0.172 0.226 0.14 0.188-0.032-0.039 0.192 0.207 0.156 0.172l2.286 2.287c-0.036-0.036 0.21 0.188 0.171 0.156-0.038-0.032 0.23 0.168 0.188 0.141-0.042-0.028 0.245 0.142 0.201 0.119-0.044-0.024 0.257 0.118 0.211 0.099s0.267 0.093 0.219 0.078c-0.048-0.014 0.275 0.067 0.226 0.057s0.283 0.04 0.233 0.035 0.282 0.012 0.232 0.012 0.282-0.017 0.233-0.012c-0.05 0.005 0.281-0.045 0.232-0.035s0.274-0.071 0.227-0.057c-0.048 0.015 0.265-0.097 0.218-0.078-0.046 0.019 0.255-0.123 0.211-0.099-0.044 0.023 0.243-0.147 0.201-0.119-0.041 0.027 0.227-0.173 0.188-0.141s0.207-0.192 0.172-0.156l2.771-2.772v7.92 3.828c0.001-0.03 0.009 0.209 0.006 0.172s0.025 0.211 0.02 0.174c-0.006-0.037 0.039 0.208 0.031 0.172-0.008-0.037 0.056 0.204 0.045 0.168s0.068 0.199 0.055 0.164c-0.014-0.035 0.084 0.196 0.068 0.162s0.098 0.187 0.08 0.154c-0.018-0.032 0.112 0.18 0.092 0.149-0.021-0.031 0.124 0.172 0.101 0.142-0.022-0.029 0.137 0.161 0.112 0.133s0.148 0.151 0.121 0.125 0.157 0.141 0.129 0.117c-0.029-0.024 0.169 0.127 0.138 0.106-0.03-0.022 0.179 0.115 0.147 0.095-0.032-0.019 0.185 0.103 0.152 0.086s0.193 0.087 0.158 0.073c-0.034-0.015 0.198 0.074 0.163 0.062-0.036-0.012 0.204 0.06 0.167 0.051-0.036-0.009 0.207 0.044 0.17 0.037-0.036-0.007 0.209 0.027 0.172 0.023-0.037-0.003 0.211 0.013 0.174 0.012s0.213-0.001 0.176 0c-0.037 0.002 0.209-0.018 0.172-0.013-0.037 0.004 0.21-0.033 0.174-0.026-0.037 0.007 0.206-0.049 0.17-0.039-0.037 0.01 0.201-0.063 0.166-0.051-0.036 0.013 0.196-0.079 0.162-0.064-0.035 0.015 0.191-0.092 0.158-0.074-0.033 0.017 0.182-0.106 0.15-0.086-0.032 0.019 0.177-0.12 0.147-0.098-0.031 0.022 0.165-0.131 0.136-0.107-0.028 0.024 0.156-0.144 0.129-0.118a1.9535 1.9535 0 0 0 0.002 -0.002l2.713-2.66a1.9535 1.9535 0 0 0 0.026 -0.025 1.9535 1.9535 0 0 0 0.017 -0.016l7.975-7.974a1.9535 1.9535 0 0 0 0.062 -0.071l-0.023 0.03 1.09-1.143a1.9535 1.9535 0 0 0 0.002 -0.002c-0.034 0.035 0.178-0.21 0.148-0.172s0.157-0.224 0.131-0.183c-0.026 0.04 0.133-0.239 0.111-0.196s0.112-0.25 0.094-0.205 0.088-0.261 0.074-0.215c-0.013 0.047 0.062-0.266 0.053-0.218-0.009 0.047 0.036-0.273 0.031-0.225-0.004 0.048 0.012-0.273 0.012-0.225 0 0.049-0.016-0.272-0.012-0.224 0.005 0.048-0.04-0.272-0.031-0.225 0.009 0.048-0.066-0.265-0.053-0.219 0.014 0.047-0.092-0.259-0.074-0.214s-0.116-0.248-0.094-0.205-0.137-0.236-0.111-0.196c0.026 0.041-0.161-0.221-0.131-0.183s-0.182-0.207-0.148-0.172a1.9535 1.9535 0 0 0 -0.002 -0.002l-1.088-1.143a1.9535 1.9535 0 0 0 -0.041 -0.043l-5.947-5.947 5.933-5.934 0.014-0.013c0.011-0.011 0.023-0.024 0.019-0.02a1.9535 1.9535 0 0 0 0.02 -0.019l1.09-1.145a1.9535 1.9535 0 0 0 0.002 -0.002c-0.034 0.035 0.178-0.21 0.148-0.172s0.157-0.224 0.131-0.183c-0.026 0.04 0.133-0.239 0.111-0.196s0.112-0.25 0.094-0.205 0.088-0.261 0.074-0.215c-0.013 0.047 0.062-0.266 0.053-0.218-0.009 0.047 0.036-0.273 0.031-0.225-0.004 0.048 0.012-0.273 0.012-0.224 0 0.048-0.016-0.273-0.012-0.225 0.005 0.048-0.04-0.272-0.031-0.225 0.009 0.048-0.066-0.265-0.053-0.218 0.014 0.046-0.092-0.26-0.074-0.215s-0.116-0.248-0.094-0.205-0.137-0.236-0.111-0.196c0.026 0.041-0.161-0.221-0.131-0.183s-0.182-0.207-0.148-0.172a1.9535 1.9535 0 0 0 -0.002 -0.002l-1.088-1.141a1.9535 1.9535 0 0 0 -0.041 -0.043l-7.975-7.9763a1.9535 1.9535 0 0 0 -0.017 -0.0156l-0.004-0.0039-2.735-2.6816a1.9535 1.9535 0 0 0 -0.002 -0.002c0.037 0.0354-0.217-0.1879-0.177-0.1562 0.039 0.0316-0.234-0.1663-0.192-0.1387 0.043 0.0275-0.25-0.1424-0.205-0.1192s-0.262-0.1162-0.215-0.0976-0.273-0.09-0.224-0.0762c0.048 0.0139-0.281-0.0616-0.231-0.0527s-0.285-0.0332-0.234-0.0293c0.05 0.0039-0.287-0.0067-0.236-0.0078zm0.042 1.9531a0.42536 0.42536 0 0 1 0.307 0.1211l2.738 2.6855a0.42536 0.42536 0 0 1 0.004 0.002l7.975 7.9764a0.42536 0.42536 0 0 1 0.006 0.008l1.09 1.143a0.42536 0.42536 0 0 1 0 0.585l-1.09 1.145a0.42536 0.42536 0 0 1 -0.006 0.006l-7.328 7.328 7.328 7.328a0.42536 0.42536 0 0 1 0.006 0.008l1.09 1.144a0.42536 0.42536 0 0 1 0 0.586l-1.09 1.143a0.42536 0.42536 0 0 1 -0.006 0.008l-7.975 7.974a0.42536 0.42536 0 0 1 -0.004 0.002l-2.738 2.686a0.42536 0.42536 0 0 1 -0.723 -0.305v-3.828-12.635l-6.105 6.106a0.42536 0.42536 0 0 1 -0.602 0l-2.285-2.287a0.42536 0.42536 0 0 1 0 -0.602l7.328-7.328-7.328-7.328a0.42536 0.42536 0 0 1 0 -0.602l2.285-2.285a0.42536 0.42536 0 0 1 0.602 0l6.105 6.106v-12.637-3.8282a0.42536 0.42536 0 0 1 0.416 -0.4258zm3.625 9.16v6.135l3.067-3.066-3.067-3.069zm0 17.545v6.135l3.067-3.069-3.067-3.066z"/>
  <path id="path4671" style="opacity:.3;fill:url(#linearGradient4203)" d="m22.48 3.0001a0.42536 0.42536 0 0 0 -0.415 0.4254v3.8278 12.637l-6.1056-6.1056a0.42536 0.42536 0 0 0 -0.60142 0l-2.2861 2.2861a0.42536 0.42536 0 0 0 0 0.60142l7.3284 7.3284-7.3284 7.3284a0.42536 0.42536 0 0 0 0 0.60142l2.2861 2.2861a0.42536 0.42536 0 0 0 0.60142 0l6.1056-6.1056v12.637 3.8278a0.42536 0.42536 0 0 0 0.7227 0.30403l2.738-2.6848a0.42536 0.42536 0 0 0 0.0033 -0.0033l7.9747-7.9747a0.42536 0.42536 0 0 0 0.0067 -0.0067l1.0899-1.143a0.42536 0.42536 0 0 0 0 -0.58647l-1.0899-1.143a0.42536 0.42536 0 0 0 -0.0067 -0.0083l-7.3284-7.3284 7.3284-7.3284a0.42536 0.42536 0 0 0 0.0067 -0.0066l1.0899-1.143a0.42536 0.42536 0 0 0 0 -0.58647l-1.0899-1.143a0.42536 0.42536 0 0 0 -0.0067 -0.0083l-7.975-7.9745a0.42536 0.42536 0 0 0 -0.0033 -0.00332l-2.739-2.6848a0.42536 0.42536 0 0 0 -0.307 -0.1213zm3.6252 9.1609 3.0669 3.0669-3.0669 3.0669v-6.1339zm0 17.544 3.0669 3.0669-3.0669 3.0669v-6.1339z"/>
  <g id="Layer_5" xml:space="default" transform="translate(28,27.002)">
   <g id="g797" xml:space="default">
    <path id="path799" d="m14.931 19.998c-0.642 0-1.242-0.247-1.691-0.699l-3.24-3.239-3.241 3.241c-0.443 0.443-1.061 0.697-1.691 0.697-0.628 0-1.222-0.241-1.674-0.679l-2.694-2.696c-0.438-0.425-0.7-1.05-0.7-1.692 0-0.629 0.256-1.246 0.701-1.691l3.239-3.24-3.239-3.239c-0.927-0.937-0.927-2.447-0.011-3.375l2.685-2.682c0.452-0.454 1.053-0.704 1.692-0.704 0.646 0 1.25 0.253 1.701 0.712l3.232 3.23 3.239-3.239c0.425-0.439 1.05-0.702 1.691-0.702 0.63 0 1.246 0.256 1.692 0.702l2.674 2.674c0.439 0.425 0.701 1.05 0.701 1.692 0 0.629-0.256 1.246-0.701 1.691l-3.238 3.24 3.239 3.239c0.454 0.452 0.701 1.053 0.701 1.691 0 0.64-0.247 1.24-0.701 1.692l-2.672 2.676c-0.452 0.453-1.053 0.7-1.694 0.7z" style="opacity:.3" xml:space="default"/>
    <path id="path806" d="m13.231 9.858 4.652-4.653c0.073-0.073 0.115-0.175 0.115-0.278s-0.042-0.205-0.115-0.279l-2.675-2.674c-0.073-0.074-0.175-0.115-0.278-0.115-0.104 0-0.206 0.041-0.278 0.115l-4.653 4.652-4.653-4.652c-0.153-0.154-0.402-0.154-0.557 0l-2.674 2.673c-0.154 0.154-0.154 0.404 0 0.558l4.652 4.653-4.653 4.652c-0.073 0.073-0.115 0.175-0.115 0.278s0.042 0.205 0.115 0.278l2.675 2.675c0.073 0.073 0.175 0.115 0.278 0.115 0.104 0 0.206-0.042 0.278-0.115l4.653-4.652 4.653 4.652c0.074 0.074 0.173 0.115 0.278 0.115s0.204-0.041 0.278-0.115l2.675-2.675c0.074-0.074 0.115-0.173 0.115-0.278s-0.041-0.204-0.115-0.278l-4.651-4.652z" style="fill:url(#linearGradient2642-0)" xml:space="default"/>
    <g id="g808" style="opacity:.4" xml:space="default">
     <g id="g810" xml:space="default">
      <path id="path812" d="m15.209 1.974c-0.073-0.074-0.175-0.115-0.278-0.115-0.104 0-0.206 0.042-0.278 0.115l-4.498 4.496 0.531 0.531 4.653-4.652c0.043-0.043 0.096-0.071 0.153-0.091l-0.283-0.284zm-7.754 8.259-4.652-4.653c-0.154-0.153-0.154-0.403 0-0.558l2.674-2.674c0.044-0.044 0.097-0.072 0.153-0.091l-0.284-0.283c-0.153-0.154-0.402-0.154-0.557 0l-2.674 2.674c-0.154 0.154-0.154 0.404 0 0.557l4.652 4.653-4.653 4.653c-0.073 0.073-0.115 0.175-0.115 0.278s0.042 0.205 0.115 0.278l2.675 2.675c0.073 0.073 0.175 0.115 0.278 0.115 0.043 0 0.084-0.012 0.125-0.024l-2.391-2.391c-0.073-0.073-0.115-0.175-0.115-0.278s0.042-0.205 0.115-0.278l4.654-4.653zm3.075 3.388 4.122 4.121c0.074 0.074 0.173 0.115 0.278 0.115 0.044 0 0.085-0.011 0.125-0.024l-4.369-4.368-0.156 0.156z" style="fill:#fff" xml:space="default"/>
     </g>
    </g>
   </g>
  </g>
 </g>
</svg>
