<?xml version="1.0" encoding="UTF-8" standalone="no"?>
<!-- Generator: Adobe Illustrator 13.0.0, SVG Export Plug-In . SVG Version: 6.00 Build 14576)  -->
<svg id="svg2" xmlns:rdf="http://www.w3.org/1999/02/22-rdf-syntax-ns#" xmlns="http://www.w3.org/2000/svg" enable-background="new 0 0 47.999 31.998" xml:space="preserve" height="48" width="47.999" version="1.0" y="0px" x="0px" xmlns:cc="http://creativecommons.org/ns#" xmlns:dc="http://purl.org/dc/elements/1.1/" viewBox="0 0 47.999 31.998"><metadata id="metadata291"><rdf:RDF><cc:Work rdf:about=""><dc:format>image/svg+xml</dc:format><dc:type rdf:resource="http://purl.org/dc/dcmitype/StillImage"/></cc:Work></rdf:RDF></metadata>
<g id="Layer_2" style="opacity:.3">
	<g id="g238">
		<g id="g240">
			<path id="path242" d="m44.999 0h-41.999c-1.655 0-3 1.345-3 3v25.998c0 1.654 1.345 3 3 3h41.999c1.655 0 3-1.346 3-3v-25.998c0-1.655-1.345-3-3-3zm1.001 28.999c0 0.553-0.447 1-1 1h-42c-0.552 0-1-0.447-1-1v-26c0-0.552 0.448-1 1-1h42c0.553 0 1 0.448 1 1v26z"/>
		</g>
	</g>
</g>
<g id="Layer_3">
	<g id="g245">
		<linearGradient id="SVGID_1_" y2="-3.3041" gradientUnits="userSpaceOnUse" x2="9.9754" y1="35.303" x1="38.025">
			<stop id="stop248" style="stop-color:#878787" offset="0"/>
			<stop id="stop250" style="stop-color:#8F8F8F" offset=".2527"/>
			<stop id="stop252" style="stop-color:#A1A1A1" offset=".3489"/>
			<stop id="stop254" style="stop-color:#CDCDCD" offset=".6085"/>
			<stop id="stop256" style="stop-color:#E8E8E8" offset=".8104"/>
			<stop id="stop258" style="stop-color:#F2F2F2" offset=".9286"/>
		</linearGradient>
		<path id="path260" style="fill:url(#SVGID_1_)" d="m46 28.999c0 0.553-0.447 1-1 1h-42c-0.552 0-1-0.447-1-1v-26c0-0.552 0.448-1 1-1h42c0.553 0 1 0.448 1 1v26z"/>
	</g>
</g>
<g id="Layer_4">
	<g id="g264" style="opacity:.4">
		<g id="g266">
			<path id="path268" style="fill:#fff" d="m2.625 29.749v-26c0-0.552 0.448-1 1-1h42c0.12 0 0.231 0.03 0.338 0.068-0.088-0.462-0.475-0.818-0.963-0.818h-42c-0.552 0-1 0.448-1 1v26c0 0.433 0.278 0.792 0.662 0.932-0.013-0.061-0.037-0.118-0.037-0.182z"/>
		</g>
	</g>
</g>
<g id="Layer_4_copy">
	<g id="g271" style="opacity:.2">
		<g id="g273">
			<path id="path275" style="fill:#fff" d="m45 1.999h-42c-0.552 0-1 0.448-1 1v26c0 0.553 0.448 1 1 1h42c0.553 0 1-0.447 1-1v-26c0-0.552-0.448-1-1-1zm0.18 26.306c0 0.521-0.423 0.944-0.944 0.944h-40.667c-0.521 0-0.944-0.423-0.944-0.944v-24.612c0-0.521 0.423-0.944 0.944-0.944h40.667c0.521 0 0.944 0.423 0.944 0.944v24.612z"/>
		</g>
	</g>
</g>
<g id="Layer_1">
	<rect id="rect5272" style="opacity:.61780;fill:#2a2a2a" height="1" width="20" y="15.874" x="5.5" enable-background="new    "/>
	<rect id="rect5274" style="opacity:.61780;fill:#2a2a2a" height="1" width="25" y="19.874" x="5.5" enable-background="new    "/>
	<rect id="rect5276" style="opacity:.61780;fill:#2a2a2a" height="1" width="17" y="23.874" x="5.5" enable-background="new    "/>
	<g id="g281">
		<rect id="rect5270" style="opacity:.61780;fill:#2a2a2a" height="8" width="7" y="5.874" x="35" enable-background="new    "/>
		<path id="rect3197" style="opacity:0.33;fill:#fff" enable-background="new    " d="m42 5.874v8.017h-7v0.983h8v-9h-1z"/>
	</g>
	<rect id="rect3186" style="opacity:0.19;fill:#fff" height="1" width="20" y="16.874" x="5.5" enable-background="new    "/>
	<rect id="rect3188" style="opacity:0.19;fill:#fff" height="1" width="25" y="20.874" x="5.5" enable-background="new    "/>
	<rect id="rect3190" style="opacity:0.19;fill:#fff" height="1" width="17" y="24.874" x="5.5" enable-background="new    "/>
</g>
</svg>
