<?xml version="1.0" encoding="UTF-8" standalone="no"?>
<!-- Created with Inkscape (http://www.inkscape.org/) -->
<svg id="svg3756" xmlns:rdf="http://www.w3.org/1999/02/22-rdf-syntax-ns#" xmlns="http://www.w3.org/2000/svg" height="48" width="48" version="1.0" xmlns:cc="http://creativecommons.org/ns#" xmlns:xlink="http://www.w3.org/1999/xlink" xmlns:dc="http://purl.org/dc/elements/1.1/">
 <metadata id="metadata14">
  <rdf:RDF>
   <cc:Work rdf:about="">
    <dc:format>image/svg+xml</dc:format>
    <dc:type rdf:resource="http://purl.org/dc/dcmitype/StillImage"/>
    <dc:title/>
   </cc:Work>
  </rdf:RDF>
 </metadata>
 <defs id="defs3758">
  <linearGradient id="linearGradient4203" y2="8" gradientUnits="userSpaceOnUse" x2="16" gradientTransform="matrix(-.00026857 -1.049 1.049 -.00026857 -50.019 56.026)" y1="45" x1="35">
   <stop id="stop252" stop-color="#9b9b9b" offset="0"/>
   <stop id="stop254" stop-color="#ececec" offset="1"/>
  </linearGradient>
 </defs>
 <g id="layer1">
  <path id="path4214" style="opacity:.3" d="m22.438 1.0469c0.04933-0.00108-0.27946 0.021475-0.23047 0.015625s-0.27476 0.049624-0.22656 0.039063c0.0482-0.010562-0.26961 0.075721-0.22266 0.060547s-0.2601 0.10168-0.21484 0.082031c0.04526-0.019644-0.25018 0.12549-0.20703 0.10156s-0.23594 0.14909-0.19531 0.12109c0.04063-0.027992-0.22133 0.17046-0.18359 0.13867 0.03773-0.031791-0.20245 0.19349-0.16797 0.1582 0.03448-0.035292-0.1852 0.21034-0.1543 0.17188 0.03091-0.038462-0.16181 0.22682-0.13477 0.18555 0.02704-0.041271-0.14011 0.24291-0.11719 0.19922 0.02292-0.043693-0.11429 0.25469-0.0957 0.20898 0.01859-0.045705-0.09025 0.26409-0.07617 0.2168 0.01408-0.047289-0.06608 0.27304-0.05664 0.22461 0.0094-0.048429-0.03791 0.27568-0.0332 0.22656 0.0047-0.049115-0.0097 0.27981-0.0098 0.23047v3.8262 7.9219l-2.7715-2.7715c0.03536 0.03536-0.21053-0.18797-0.17188-0.15625s-0.22908-0.16841-0.1875-0.14062c0.04158 0.02778-0.24527-0.14271-0.20117-0.11914s-0.25713-0.11874-0.21094-0.09961c0.0462 0.01914-0.2666-0.09264-0.21875-0.07813 0.04785 0.01452-0.2756-0.0664-0.22656-0.05664 0.04904 0.0098-0.28218-0.04006-0.23242-0.03516s-0.28242-0.01172-0.23242-0.01172-0.28218 0.01662-0.23242 0.01172-0.28146 0.04491-0.23242 0.03516c0.04904-0.0098-0.27441 0.07116-0.22656 0.05664 0.04785-0.01451-0.26495 0.09726-0.21875 0.07813 0.0462-0.01914-0.25504 0.12318-0.21094 0.09961s-0.24275 0.14692-0.20117 0.11914c0.04157-0.02778-0.22615 0.17235-0.1875 0.14062 0.03865-0.03172-0.20723 0.19161-0.17188 0.15625l-2.2852 2.2852c0.03536-0.03536-0.18797 0.21053-0.15625 0.17188s-0.1684 0.22908-0.14062 0.1875c0.02778-0.04157-0.14271 0.24527-0.11914 0.20117s-0.11874 0.25713-0.09961 0.21094c0.01914-0.0462-0.09264 0.2666-0.07813 0.21875 0.01452-0.04785-0.0664 0.2756-0.05664 0.22656 0.0098-0.04904-0.04006 0.28218-0.03516 0.23242s-0.01172 0.28242-0.01172 0.23242 0.01662 0.28218 0.01172 0.23242 0.04491 0.28146 0.03516 0.23242c-0.0098-0.04904 0.07116 0.27441 0.05664 0.22656s0.09726 0.26495 0.07813 0.21875c-0.01914-0.0462 0.12318 0.25504 0.09961 0.21094s0.14692 0.24275 0.11914 0.20117c-0.02778-0.04157 0.17235 0.22615 0.14062 0.1875-0.03172-0.03865 0.19161 0.20723 0.15625 0.17188l5.947 5.948-5.948 5.947c0.03536-0.03536-0.18797 0.21053-0.15625 0.17188s-0.1684 0.22907-0.14062 0.1875-0.14271 0.24527-0.11914 0.20117-0.11874 0.25713-0.09961 0.21094c0.01914-0.0462-0.09264 0.2666-0.07813 0.21875 0.01452-0.04785-0.0664 0.2756-0.05664 0.22656 0.0098-0.04904-0.04006 0.28218-0.03516 0.23242s-0.01172 0.28242-0.01172 0.23242 0.01662 0.28218 0.01172 0.23242 0.04491 0.28146 0.03516 0.23242c-0.0098-0.04904 0.07116 0.27441 0.05664 0.22656s0.09726 0.26495 0.07813 0.21875c-0.01914-0.0462 0.12318 0.25504 0.09961 0.21094s0.14692 0.24275 0.11914 0.20117 0.17235 0.22615 0.14062 0.1875c-0.03172-0.03865 0.19161 0.20723 0.15625 0.17188l2.2852 2.2871c-0.03536-0.03536 0.21053 0.18797 0.17188 0.15625s0.22907 0.16841 0.1875 0.14062c-0.04157-0.02778 0.24527 0.14271 0.20117 0.11914s0.25713 0.11874 0.21094 0.09961c-0.0462-0.01913 0.2666 0.09264 0.21875 0.07813-0.04785-0.01452 0.2756 0.0664 0.22656 0.05664-0.04904-0.0098 0.28218 0.04006 0.23242 0.03516s0.28242 0.01172 0.23242 0.01172 0.28218-0.01662 0.23242-0.01172 0.28146-0.04491 0.23242-0.03516c-0.04904 0.0098 0.27441-0.07116 0.22656-0.05664s0.26495-0.09726 0.21875-0.07813c-0.0462 0.01914 0.25504-0.12318 0.21094-0.09961s0.24275-0.14692 0.20117-0.11914c-0.04157 0.02778 0.22615-0.17235 0.1875-0.14062-0.03865 0.03172 0.20723-0.19161 0.17188-0.15625l2.7715-2.7715v7.9199 3.8281c0.000234-0.03064 0.0085 0.2087 0.0059 0.17188-0.0027-0.03724 0.02494 0.21077 0.01953 0.17383-0.0054-0.03694 0.03935 0.20832 0.03125 0.17188-0.0081-0.03645 0.05567 0.20372 0.04492 0.16797s0.06803 0.19893 0.05469 0.16406 0.08422 0.19591 0.06836 0.16211 0.09837 0.18684 0.08008 0.1543c-0.01829-0.03255 0.11242 0.17956 0.0918 0.14844-0.02063-0.03112 0.12441 0.1721 0.10156 0.14258-0.02285-0.02953 0.13628 0.16058 0.11133 0.13281s0.14801 0.15087 0.12109 0.125 0.15765 0.14102 0.12891 0.11719 0.16908 0.12713 0.13867 0.10547 0.1784 0.11508 0.14648 0.0957c-0.03191-0.01937 0.18559 0.10292 0.15234 0.08594s0.19261 0.08677 0.1582 0.07227c-0.0344-0.0145 0.19748 0.07445 0.16211 0.0625s0.20412 0.06011 0.16797 0.05078c-0.03615-0.0093 0.20666 0.04376 0.16992 0.03711-0.03674-0.0067 0.209 0.02738 0.17188 0.02344-0.03713-0.0039 0.21114 0.01293 0.17383 0.01172-0.03731-0.0012 0.21309-0.0015 0.17578 0-0.0373 0.0015 0.20897-0.01792 0.17188-0.01367-0.03709 0.0043 0.21051-0.03235 0.17383-0.02539-0.03668 0.007 0.206-0.04869 0.16992-0.03906-0.03607 0.0096 0.20129-0.06302 0.16602-0.05078s0.19639-0.07925 0.16211-0.06445c-0.03428 0.01479 0.19131-0.09148 0.1582-0.07422-0.0331 0.01726 0.18214-0.10558 0.15039-0.08594s0.17671-0.11957 0.14648-0.09766 0.16526-0.13149 0.13672-0.10742 0.15561-0.14328 0.12891-0.11719a1.9535 1.9535 0 0 0 0.002 -0.002l2.7129-2.6602a1.9535 1.9535 0 0 0 0.02539 -0.02539 1.9535 1.9535 0 0 0 0.01758 -0.01563l7.9746-7.9746a1.9535 1.9535 0 0 0 0.0625 -0.07031l-0.02344 0.0293 1.0898-1.1426a1.9535 1.9535 0 0 0 0.002 -0.002c-0.03332 0.03507 0.17828-0.20994 0.14844-0.17188-0.02984 0.03807 0.15696-0.22432 0.13086-0.18359-0.02609 0.04073 0.13344-0.23833 0.11133-0.19531s0.11169-0.25 0.09375-0.20508 0.08781-0.26126 0.07422-0.21484c-0.0136 0.04642 0.06187-0.26625 0.05273-0.21875-0.0091 0.0475 0.03584-0.27276 0.03125-0.22461-0.0046 0.04815 0.01172-0.27298 0.01172-0.22461s-0.01631-0.27276-0.01172-0.22461c0.0046 0.04815-0.04038-0.27211-0.03125-0.22461 0.0091 0.0475-0.06633-0.26517-0.05273-0.21875s-0.09215-0.25976-0.07422-0.21484c0.01794 0.04492-0.11586-0.2481-0.09375-0.20508s-0.13742-0.23604-0.11133-0.19531-0.1607-0.22166-0.13086-0.18359-0.18175-0.20694-0.14844-0.17188a1.9535 1.9535 0 0 0 -0.002 -0.002l-1.0879-1.1426a1.9535 1.9535 0 0 0 -0.04102 -0.04297l-5.945-5.947 5.9336-5.9336 0.01367-0.01367c0.0112-0.01121 0.02362-0.0237 0.01953-0.01953a1.9535 1.9535 0 0 0 0.01953 -0.01953l1.0898-1.1445a1.9535 1.9535 0 0 0 0.002 -0.002c-0.03332 0.03507 0.17828-0.20994 0.14844-0.17188-0.02984 0.03807 0.15696-0.22432 0.13086-0.18359-0.02609 0.04073 0.13344-0.23833 0.11133-0.19531s0.11169-0.25 0.09375-0.20508 0.08781-0.26126 0.07422-0.21484c-0.0136 0.04642 0.06187-0.26625 0.05273-0.21875-0.0091 0.0475 0.03584-0.27276 0.03125-0.22461-0.0046 0.04815 0.01172-0.27298 0.01172-0.22461s-0.01631-0.27276-0.01172-0.22461c0.0046 0.04815-0.04038-0.27211-0.03125-0.22461 0.0091 0.0475-0.06633-0.26517-0.05273-0.21875s-0.09215-0.25976-0.07422-0.21484c0.01794 0.04492-0.11586-0.2481-0.09375-0.20508s-0.13742-0.23604-0.11133-0.19531-0.1607-0.22166-0.13086-0.18359-0.18175-0.20694-0.14844-0.17188a1.9535 1.9535 0 0 0 -0.002 -0.002l-1.0879-1.1406a1.9535 1.9535 0 0 0 -0.04102 -0.04297l-7.9746-7.9766a1.9535 1.9535 0 0 0 -0.01758 -0.015625l-0.0039-0.00391-2.7344-2.6816a1.9535 1.9535 0 0 0 -0.002 -0.00195c0.03623 0.035421-0.21731-0.1879-0.17774-0.15625 0.03957 0.031647-0.23393-0.16623-0.19141-0.13867s-0.25012-0.14234-0.20508-0.11914c0.04505 0.0232-0.26197-0.11627-0.21484-0.097656 0.04713 0.018611-0.27335-0.09001-0.22461-0.076172s-0.28035-0.061663-0.23047-0.052734c0.04988 0.00893-0.28489-0.033227-0.23438-0.029297 0.05052 0.00393-0.28699-0.00671-0.23633-0.00781z"/>
  <path id="path4671" style="fill:url(#linearGradient4203)" d="m22.48 3.0001a0.42536 0.42536 0 0 0 -0.415 0.4254v3.8278 12.637l-6.1056-6.1056a0.42536 0.42536 0 0 0 -0.60142 0l-2.2861 2.2861a0.42536 0.42536 0 0 0 0 0.60142l7.3284 7.3284-7.3284 7.3284a0.42536 0.42536 0 0 0 0 0.60142l2.2861 2.2861a0.42536 0.42536 0 0 0 0.60142 0l6.1056-6.1056v12.637 3.8278a0.42536 0.42536 0 0 0 0.7227 0.30403l2.738-2.6848a0.42536 0.42536 0 0 0 0.0033 -0.0033l7.9747-7.9747a0.42536 0.42536 0 0 0 0.0067 -0.0067l1.0899-1.143a0.42536 0.42536 0 0 0 0 -0.58647l-1.0899-1.143a0.42536 0.42536 0 0 0 -0.0067 -0.0083l-7.3284-7.3284 7.3284-7.3284a0.42536 0.42536 0 0 0 0.0067 -0.0066l1.0899-1.143a0.42536 0.42536 0 0 0 0 -0.58647l-1.0899-1.143a0.42536 0.42536 0 0 0 -0.0067 -0.0083l-7.975-7.9745a0.42536 0.42536 0 0 0 -0.0033 -0.00332l-2.739-2.6848a0.42536 0.42536 0 0 0 -0.307 -0.1213zm3.6252 9.1609 3.0669 3.0669-3.0669 3.0669v-6.1339zm0 17.544 3.0669 3.0669-3.0669 3.0669v-6.1339z"/>
  <path id="path4205" style="opacity:.5;fill:#fff" d="m22.48 3c-0.21972 0.00483-0.41629 0.206-0.41602 0.42578v3.8281 12.637l-6.1055-6.1055c-0.15749-0.15749-0.44408-0.15749-0.60156 0l-2.2852 2.2852c-0.15749 0.15749-0.15749 0.44408 0 0.60156l0.51562 0.51562c0.02107-0.04345 0.04961-0.08327 0.08398-0.11719l2.2852-2.2852c0.15749-0.15749 0.44408-0.15749 0.60156 0l6.1055 6.1055v-12.637-3.8281c0-0.221 0.196-0.4222 0.416-0.427 0.11282-0.00247 0.22594 0.042206 0.30664 0.12109l2.7383 2.6855 0.0039 0.00195 7.9746 7.9766c0.002 0.0026 0.0039 0.0052 0.0059 0.0078l0.57422 0.60156c0.06404-0.15166 0.02961-0.33983-0.08398-0.45898l-1.0898-1.1426c-0.0019-0.0026-0.0039-0.0052-0.0059-0.0078l-7.9746-7.9766-0.0039-0.00195-2.7383-2.6856c-0.081-0.0788-0.194-0.1235-0.307-0.121zm6.7216 12.198-3.0992 3.1279v1.5996l3.898-3.9267zm-8.7448 8.7428-7.385 7.387c-0.15749 0.15749-0.15749 0.44408 0 0.60156l0.51562 0.51758c0.02088-0.04414 0.04943-0.08464 0.08398-0.11914l7.5862-7.5862zm5.6876 0.0567-0.20117 0.19922 8.1598 8.1311c0.002 0.0026 0.0039 0.0052 0.0059 0.0078l0.57422 0.60156c0.06323-0.15117 0.02885-0.33821-0.08398-0.45703l-1.0898-1.1445c-0.0019-0.0026-0.0039-0.0052-0.0059-0.0078zm-3.4809 3.4789-0.59961 0.59961v12.67 3.8281c-0.000428 0.28278 0.34165 0.50451 0.59961 0.38867v-3.2168zm6.538 5.2665-3.0705 3.1279v1.5996l3.8694-3.9287z"/>
 </g>
</svg>
