<?xml version="1.0" encoding="UTF-8" standalone="no"?>
<!-- Created with Inkscape (http://www.inkscape.org/) -->
<svg id="svg4874" xmlns:rdf="http://www.w3.org/1999/02/22-rdf-syntax-ns#" xmlns="http://www.w3.org/2000/svg" height="96" viewBox="0 0 96 96.000001" width="96" version="1.1" xmlns:cc="http://creativecommons.org/ns#" xmlns:dc="http://purl.org/dc/elements/1.1/">
 <metadata id="metadata4879">
  <rdf:RDF>
   <cc:Work rdf:about="">
    <dc:format>image/svg+xml</dc:format>
    <dc:type rdf:resource="http://purl.org/dc/dcmitype/StillImage"/>
    <dc:title/>
   </cc:Work>
  </rdf:RDF>
 </metadata>
 <g id="layer1" transform="translate(67.857 -78.505)">
  <rect id="rect4782-05" style="color:#000000;fill:none" transform="rotate(90)" height="96" width="96" y="-28.143" x="78.505"/>
  <path id="path4205-0" style="color-rendering:auto;text-decoration-color:#000000;color:#000000;font-variant-numeric:normal;shape-rendering:auto;solid-color:#000000;text-decoration-line:none;fill:#808080;font-variant-position:normal;mix-blend-mode:normal;font-feature-settings:normal;shape-padding:0;font-variant-alternates:normal;text-indent:0;font-variant-caps:normal;image-rendering:auto;white-space:normal;text-decoration-style:solid;font-variant-ligatures:normal;isolation:auto;text-transform:none" d="m19.977 10c-5.033 0.058-8.714-0.1202-11.725 1.541-1.5055 0.831-2.6969 2.236-3.3555 3.99-0.6587 1.755-0.8965 3.839-0.8965 6.469v40c0 2.63 0.2378 4.712 0.8965 6.467 0.6586 1.754 1.85 3.159 3.3555 3.99 3.011 1.661 6.692 1.485 11.725 1.543h0.011 26.01v8.002h-33.998v3.998h38v-3.998-8.002-4h-4.002-25.977-0.021c-5.038-0.059-8.352-0.237-9.816-1.045-0.7341-0.405-1.1512-0.853-1.5414-1.893-0.3903-1.039-0.6426-2.692-0.6426-5.062v-40c0-2.37 0.2525-4.023 0.6426-5.062 0.3902-1.04 0.8073-1.488 1.5414-1.893 1.464-0.808 4.777-0.986 9.814-1.045h0.002 55.998c5.038 0.059 8.352 0.237 9.816 1.045 0.734 0.405 1.153 0.853 1.543 1.893 0.391 1.039 0.641 2.692 0.641 5.062v30h4v-30c0-2.63-0.238-4.714-0.896-6.469-0.659-1.754-1.85-3.159-3.356-3.99-3.011-1.6612-6.692-1.483-11.725-1.541h-0.009-56.024-0.011zm13.05 21.76s-9.644 3.981-19 10.24c9.356 6.259 19 10.242 19 10.242l0.006-8.242h29.996l0.004 8h0.557c1.422-0.603 9.876-4.267 18.445-10-9.356-6.259-19.002-10.24-19.002-10.24l-0.004 8.24h-29.996l-0.006-8.24z" transform="translate(-67.857 78.505)"/>
  <path id="path4156" style="color:#000000;fill:#ed3146" d="m8.1429 134.51a20 20 0 0 0 -20 20 20 20 0 0 0 20 20 20 20 0 0 0 20 -20 20 20 0 0 0 -20 -20z"/>
  <path id="path4153" style="color:#000000;fill:#fff" d="m73.986 62v7.393c0 2.18 0.063 4.201 0.188 6.062 0.125 1.835 0.294 3.683 0.502 5.545h2.681c0.188-1.862 0.344-3.71 0.469-5.545s0.188-3.855 0.188-6.062v-7.393h-4.028zm2.014 23.5c-0.688 0-1.281 0.242-1.781 0.725-0.479 0.461-0.719 1.057-0.719 1.791 0 0.733 0.24 1.331 0.719 1.793 0.5 0.461 1.093 0.691 1.781 0.691 0.708 0 1.302-0.23 1.781-0.691 0.479-0.462 0.719-1.06 0.719-1.793 0-0.734-0.24-1.33-0.719-1.791-0.479-0.483-1.073-0.725-1.781-0.725z" transform="translate(-67.857 78.505)"/>
  <ellipse id="path4221" style="color:#000000;fill:#808080" rx="6" ry="6" cy="162.51" cx="-19.857"/>
 </g>
</svg>
