<?xml version="1.0" encoding="UTF-8" standalone="no"?>
<!-- Created with Inkscape (http://www.inkscape.org/) -->
<svg id="svg4874" xmlns:rdf="http://www.w3.org/1999/02/22-rdf-syntax-ns#" xmlns="http://www.w3.org/2000/svg" height="96" viewBox="0 0 96 96.000001" width="96" version="1.1" xmlns:cc="http://creativecommons.org/ns#" xmlns:dc="http://purl.org/dc/elements/1.1/">
 <metadata id="metadata4879">
  <rdf:RDF>
   <cc:Work rdf:about="">
    <dc:format>image/svg+xml</dc:format>
    <dc:type rdf:resource="http://purl.org/dc/dcmitype/StillImage"/>
    <dc:title/>
   </cc:Work>
  </rdf:RDF>
 </metadata>
 <g id="layer1" transform="translate(67.857 -78.505)">
  <rect id="rect4782-53" style="color:#000000;fill:none" transform="rotate(90)" height="96" width="96" y="-28.143" x="78.505"/>
  <path id="rect4171" style="opacity:.5;color:#000000;fill:#808080" d="m26.934 9.9668c-3.766 1.6052-7.574 3.3462-11.422 5.2212-3.867 1.907-7.55 3.861-11.053 5.861v0.002l7.559 5.316c-5.0301 8.146-7.1835 17.861-5.9086 27.545 1.7041 12.944 9.3336 24.365 20.641 30.893l2-3.465c-10.233-5.908-17.132-16.235-18.674-27.949-1.1429-8.683 0.762-17.387 5.223-24.715l8.789 6.181c0.736-3.945 1.349-8.058 1.84-12.339 0.466-4.255 0.802-8.439 1.006-12.551zm42.316 1.2262l-2 3.463c10.232 5.908 17.134 16.235 18.676 27.949 1.118 8.497-0.689 17.011-4.946 24.239l-8.332-5.731c-0.694 3.953-1.263 8.074-1.709 12.36-0.421 4.259-0.712 8.446-0.873 12.56 3.749-1.645 7.538-3.426 11.366-5.342 3.846-1.948 7.508-3.939 10.99-5.976l0.002-0.002-8.139-5.598c4.807-8.04 6.854-17.549 5.606-27.031-1.704-12.944-9.334-24.363-20.641-30.891zm-21.25 12.807c-6.613 0-12 5.387-12 12v7h-4v25h32v-25h-4v-7c0-6.613-5.387-12-12-12zm0 4c4.467 0 8 3.533 8 8v7h-16v-7c0-4.467 3.533-8 8-8z" transform="translate(-67.857 78.505)"/>
 </g>
</svg>
