<?xml version="1.0" encoding="UTF-8" standalone="no"?>
<!-- Created with Inkscape (http://www.inkscape.org/) -->
<svg id="svg4874" xmlns:rdf="http://www.w3.org/1999/02/22-rdf-syntax-ns#" xmlns="http://www.w3.org/2000/svg" height="96" viewBox="0 0 96 96.000001" width="96" version="1.1" xmlns:cc="http://creativecommons.org/ns#" xmlns:dc="http://purl.org/dc/elements/1.1/">
 <metadata id="metadata4879">
  <rdf:RDF>
   <cc:Work rdf:about="">
    <dc:format>image/svg+xml</dc:format>
    <dc:type rdf:resource="http://purl.org/dc/dcmitype/StillImage"/>
    <dc:title/>
   </cc:Work>
  </rdf:RDF>
 </metadata>
 <g id="layer1" transform="translate(67.857 -78.505)">
  <path id="path4643-3" style="color-rendering:auto;text-decoration-color:#000000;color:#000000;shape-rendering:auto;solid-color:#000000;text-decoration-line:none;fill:#808080;mix-blend-mode:normal;block-progression:tb;text-indent:0;image-rendering:auto;white-space:normal;text-decoration-style:solid;isolation:auto;text-transform:none" d="m27.988 3.998l-0.011 0.002c-5.033 0.0582-8.714-0.1203-11.725 1.541-1.506 0.8307-2.697 2.2356-3.356 3.9902-0.658 1.7548-0.896 3.8368-0.896 6.4668v64.002c0 2.63 0.238 4.712 0.896 6.467 0.659 1.754 1.85 3.159 3.356 3.99 3.011 1.661 6.692 1.485 11.725 1.543h0.011 20.012v-4h-19.977-0.023c-5.038-0.059-8.352-0.237-9.816-1.045-0.734-0.405-1.151-0.855-1.541-1.894-0.391-1.04-0.643-2.691-0.643-5.061v-64.002c0-2.37 0.252-4.021 0.643-5.06 0.39-1.0401 0.807-1.4903 1.541-1.895 1.464-0.8081 4.778-0.9862 9.816-1.045h29.172l14.828 14.83v27.172h4v-28.83l-17.172-17.172h-30.84zm4.633 36l-0.012 0.002c-2.378 0.028-4.218-0.15-6.05 0.861-0.917 0.506-1.684 1.422-2.067 2.442-0.382 1.019-0.492 2.119-0.492 3.433v26.526c0 1.314 0.11 2.414 0.492 3.433 0.383 1.02 1.15 1.938 2.067 2.444 1.832 1.011 3.672 0.834 6.05 0.861h0.012 15.379v-4h-8v-8h8v-4h-20v-8h24v-4-8.002h3.346c2.399 0.028 3.875 0.206 4.164 0.365 0.144 0.08 0.139 0.04 0.254 0.344 0.114 0.304 0.236 0.976 0.236 2.029v3.264h4v-3.264c0-1.314-0.11-2.414-0.492-3.433-0.383-1.02-1.148-1.936-2.065-2.442-1.832-1.011-3.672-0.834-6.05-0.861l-0.012-0.002h-22.76zm0.033 4h3.346v8.002h-8v-5.264c0-1.053 0.122-1.725 0.236-2.029 0.115-0.304 0.11-0.264 0.254-0.344 0.289-0.159 1.765-0.337 4.164-0.365zm7.346 0h8v8.002h-8v-8.002zm-12 24.002h8v8h-3.346c-2.399-0.028-3.875-0.206-4.164-0.365-0.144-0.08-0.139-0.04-0.254-0.344-0.114-0.304-0.236-0.976-0.236-2.029v-5.262z" transform="translate(-67.857 78.505)"/>
  <rect id="rect4782" style="color:#000000;fill:none" transform="rotate(90)" height="96" width="96" y="-28.143" x="78.505"/>
  <path id="path4154" style="color:#000000;fill:#ed3146" d="m6.1429 134.51a20 20 0 0 0 -20 20 20 20 0 0 0 20 20 20 20 0 0 0 20 -20 20 20 0 0 0 -20 -20z"/>
  <path id="path4152" style="color:#000000;fill:#fff" d="m71.986 62v7.393c0 2.18 0.063 4.201 0.188 6.062 0.125 1.835 0.294 3.683 0.502 5.545h2.681c0.188-1.862 0.344-3.71 0.469-5.545s0.188-3.855 0.188-6.062v-7.393h-4.028zm2.014 23.5c-0.688 0-1.281 0.242-1.781 0.725-0.479 0.461-0.719 1.057-0.719 1.791 0 0.733 0.24 1.331 0.719 1.793 0.5 0.461 1.093 0.691 1.781 0.691 0.708 0 1.302-0.23 1.781-0.691 0.479-0.462 0.719-1.06 0.719-1.793 0-0.734-0.24-1.33-0.719-1.791-0.479-0.483-1.073-0.725-1.781-0.725z" transform="translate(-67.857 78.505)"/>
 </g>
</svg>
