<?xml version="1.0" encoding="UTF-8" standalone="no"?>
<!-- Created with Inkscape (http://www.inkscape.org/) -->

<svg
   xmlns:dc="http://purl.org/dc/elements/1.1/"
   xmlns:cc="http://creativecommons.org/ns#"
   xmlns:rdf="http://www.w3.org/1999/02/22-rdf-syntax-ns#"
   xmlns:svg="http://www.w3.org/2000/svg"
   xmlns="http://www.w3.org/2000/svg"
   xmlns:sodipodi="http://sodipodi.sourceforge.net/DTD/sodipodi-0.dtd"
   xmlns:inkscape="http://www.inkscape.org/namespaces/inkscape"
   width="128"
   height="128"
   id="svg2"
   version="1.1"
   inkscape:version="0.48.3.1 r9886"
   sodipodi:docname="logo.svg"
   inkscape:export-filename="/home/hmmr/P/C/Aghermann/data/ui/aghermann.png"
   inkscape:export-xdpi="90"
   inkscape:export-ydpi="90">
  <defs
     id="defs4" />
  <sodipodi:namedview
     id="base"
     pagecolor="#ffffff"
     bordercolor="#666666"
     borderopacity="1.0"
     inkscape:pageopacity="0.0"
     inkscape:pageshadow="2"
     inkscape:zoom="4"
     inkscape:cx="78.205524"
     inkscape:cy="72.075234"
     inkscape:document-units="px"
     inkscape:current-layer="layer1"
     showgrid="false"
     fit-margin-top="1.4"
     fit-margin-left="1.4"
     fit-margin-right="1.4"
     fit-margin-bottom="1.4"
     inkscape:window-width="1211"
     inkscape:window-height="887"
     inkscape:window-x="414"
     inkscape:window-y="71"
     inkscape:window-maximized="0" />
  <metadata
     id="metadata7">
    <rdf:RDF>
      <cc:Work
         rdf:about="">
        <dc:format>image/svg+xml</dc:format>
        <dc:type
           rdf:resource="http://purl.org/dc/dcmitype/StillImage" />
        <dc:title></dc:title>
      </cc:Work>
    </rdf:RDF>
  </metadata>
  <g
     inkscape:label="Layer 1"
     inkscape:groupmode="layer"
     id="layer1"
     transform="translate(-240.24595,-167.74433)">
    <g
       style="font-size:32px;font-style:normal;font-variant:normal;font-weight:normal;font-stretch:normal;text-indent:0;text-align:start;text-decoration:none;line-height:125%;letter-spacing:normal;word-spacing:normal;text-transform:none;direction:ltr;block-progression:tb;writing-mode:lr-tb;text-anchor:start;color:#000000;fill:#0000ec;fill-opacity:1;fill-rule:nonzero;stroke:none;stroke-width:0.99921262;marker:none;visibility:visible;display:inline;overflow:visible;enable-background:accumulate;font-family:GoudyOlSt BT;-inkscape-font-specification:GoudyOlSt BT"
       id="text2985"
       transform="matrix(3.9093698,0,0,3.9093698,-768.35096,-763.07691)"
       inkscape:export-filename="/home/hmmr/P/C/Aghermann/data/ui/text2985.png"
       inkscape:export-xdpi="90"
       inkscape:export-ydpi="90">
      <path
         style="marker:none"
         d="m 269.91293,252.56531 c 2.05367,-4.5e-4 4.10735,9.1e-4 6.16101,-6.8e-4 0.19093,-0.007 0.42459,-0.0335 0.53356,-0.21291 0.0623,-0.13698 -0.0174,-0.28484 -0.0549,-0.41821 -0.0557,-0.14926 -0.10085,-0.30106 -0.16317,-0.44799 -0.95387,-2.44197 -1.9059,-4.88469 -2.86091,-7.32618 -0.0685,-0.14442 -0.17887,-0.30686 -0.3499,-0.32838 -0.21515,0.0313 -0.37043,0.21602 -0.44525,0.40941 -1.14325,2.44686 -2.2865,4.89373 -3.42975,7.34059 -0.10937,0.21097 -0.23098,0.45247 -0.16922,0.69593 0.0655,0.19792 0.28964,0.25432 0.47447,0.27299 0.1009,0.0117 0.20257,0.0154 0.30409,0.0154 m -5.21875,6.1875 c 2.95621,-6.32342 5.91107,-12.64749 8.86812,-18.97051 0.0863,-0.15495 0.16259,-0.35276 0.35062,-0.40448 0.12833,-0.0584 0.28212,-0.0247 0.36328,0.0938 0.1048,0.12287 0.15012,0.282 0.22611,0.42011 2.25321,5.87348 4.50532,11.74739 6.75923,17.62061 0.27668,0.69027 0.57214,1.38274 1.00562,1.99143 0.38737,0.52532 0.94393,0.94769 1.59107,1.08305 0.31937,0.0882 0.68409,0.0843 0.95172,0.3043 0.14938,0.12491 0.14218,0.36272 0.0417,0.51493 -0.11012,0.11752 -0.29308,0.10494 -0.44088,0.0974 -1.00039,-0.073 -2.00046,-0.16248 -3.00405,-0.17606 -1.0962,-0.028 -2.19412,0.0357 -3.28015,0.18688 -0.15171,0.0106 -0.33291,0.0723 -0.45995,-0.0439 -0.1343,-0.10581 -0.21498,-0.29846 -0.13087,-0.45994 0.12752,-0.24537 0.41565,-0.3232 0.65625,-0.41308 0.31281,-0.11725 0.63833,-0.24812 0.87202,-0.49582 0.17858,-0.2325 0.27325,-0.52524 0.30055,-0.81497 -0.008,-0.22537 -0.0972,-0.43855 -0.15971,-0.65291 -0.21401,-0.65809 -0.47463,-1.29986 -0.695,-1.95564 -0.19761,-0.78402 -0.40139,-1.57398 -0.74626,-2.30845 -0.11746,-0.22456 -0.23792,-0.47439 -0.46494,-0.60708 -0.14888,-0.0707 -0.29943,0.0455 -0.42033,0.12425 -0.37154,0.26282 -0.67871,0.62014 -1.09493,0.81679 -0.14957,0.0728 -0.355,0.0775 -0.46399,-0.0672 -0.31024,-0.35187 -0.7638,-0.52839 -1.20196,-0.66157 -0.91072,-0.25778 -1.8639,-0.32078 -2.80635,-0.32643 -0.65352,0.003 -1.30848,0.033 -1.95657,0.11956 -0.31085,0.0582 -0.62946,0.12509 -0.90634,0.28412 -0.24658,0.18444 -0.38811,0.46933 -0.52824,0.73581 -0.57006,1.21734 -1.13536,2.437 -1.70275,3.65562 -0.19977,0.46388 -0.41253,0.93542 -0.46746,1.44264 -0.0559,0.4234 0.11262,0.86655 0.43839,1.14323 0.26963,0.23347 0.59569,0.40046 0.93679,0.50082 0.28317,0.0783 0.61171,0.0515 0.84627,0.2562 0.16099,0.14352 0.15481,0.44568 -0.0257,0.56995 -0.22345,0.10886 -0.48078,0.0588 -0.71937,0.0507 -0.98533,-0.0679 -1.97012,-0.15678 -2.9584,-0.16696 -0.51479,-0.0162 -1.03044,0.0192 -1.53824,0.10526 -0.21039,0.0279 -0.42016,0.075 -0.63268,0.0777 -0.23067,-0.0325 -0.42686,-0.30259 -0.3288,-0.5278 0.11501,-0.19227 0.33807,-0.27783 0.53558,-0.36087 0.21264,-0.0755 0.42185,-0.17577 0.6201,-0.28713 0.30773,-0.18735 0.54596,-0.4676 0.76231,-0.75122 0.40178,-0.54007 0.7136,-1.13966 1.00819,-1.74292"
         id="path2990"
         inkscape:connector-curvature="0" />
    </g>
    <g
       style="font-size:22px;font-style:normal;font-variant:normal;font-weight:bold;font-stretch:normal;text-indent:0;text-align:start;text-decoration:none;line-height:125%;letter-spacing:normal;word-spacing:normal;text-transform:none;direction:ltr;block-progression:tb;writing-mode:lr-tb;text-anchor:start;color:#000000;fill:#0000ec;fill-opacity:1;fill-rule:nonzero;stroke:none;stroke-width:0.99921262;marker:none;visibility:visible;display:inline;overflow:visible;enable-background:accumulate;font-family:GoudyOlSt BT;-inkscape-font-specification:GoudyOlSt BT Bold"
       id="text2992"
       transform="matrix(3.9093698,0,0,3.9093698,-768.35096,-767.00373)"
       inkscape:export-filename="/home/hmmr/P/C/Aghermann/data/ui/text2985.png"
       inkscape:export-xdpi="90"
       inkscape:export-ydpi="90">
      <path
         style="marker:none;font-family:Goudy;-inkscape-font-specification:Goudy Bold"
         d="m 275.44522,268.44257 c 0.004,0.33234 -0.088,0.67751 -0.32315,0.92198 -0.29648,0.35415 -0.74053,0.53996 -1.18076,0.641 -0.39958,0.0901 -0.80756,0.14453 -1.21629,0.17042 -0.63789,0.0352 -1.28607,-0.0669 -1.87801,-0.30687 -0.29918,-0.17671 -0.54606,-0.4405 -0.7104,-0.74558 -0.15638,-0.35017 -0.17311,-0.76817 -0.0304,-1.12579 0.0961,-0.20587 0.21007,-0.43269 0.42572,-0.53477 0.23757,-0.11188 0.50659,-0.0625 0.75994,-0.0754 0.99217,9.6e-4 1.98649,-9.3e-4 2.97547,0.0883 0.32878,0.0251 0.66285,0.10054 0.94114,0.28447 0.14842,0.0904 0.18794,0.2768 0.21897,0.43535 0.0127,0.0816 0.0178,0.16428 0.0178,0.24683 m -1.40723,-8.11036 c -3.9e-4,0.58844 -0.10932,1.18701 -0.38127,1.71265 -0.21094,0.37958 -0.60518,0.63528 -1.02973,0.70757 -0.48798,0.10248 -1.04136,0.008 -1.40756,-0.34928 -0.28242,-0.27095 -0.43602,-0.64247 -0.57089,-1.00234 -0.17217,-0.49858 -0.24779,-1.02964 -0.21357,-1.5564 0.0175,-0.44897 0.0868,-0.9047 0.28881,-1.31071 0.1198,-0.2647 0.3051,-0.49943 0.54697,-0.66249 0.18344,-0.13106 0.38698,-0.25822 0.61859,-0.26868 0.42076,-0.0565 0.86961,0.016 1.23121,0.24501 0.29216,0.18177 0.48014,0.48168 0.61788,0.78906 0.15622,0.33616 0.25306,0.70008 0.2718,1.07082 0.0179,0.20775 0.0277,0.41623 0.0277,0.62476 m -2.30957,10.51661 c 0.76552,0.002 1.53414,-0.0539 2.2839,-0.21324 0.43953,-0.10408 0.87541,-0.23419 1.28911,-0.41666 0.61886,-0.28968 1.16697,-0.75315 1.51479,-1.34497 0.38817,-0.68496 0.44181,-1.53385 0.2081,-2.27904 -0.19669,-0.48901 -0.64495,-0.84013 -1.13345,-1.01137 -0.62575,-0.22347 -1.29708,-0.26574 -1.95566,-0.29198 -0.7001,-0.0146 -1.40084,-10e-4 -2.10045,-0.0385 -0.41432,-0.0253 -0.83459,-0.039 -1.23787,-0.14563 -0.19916,-0.0637 -0.40742,-0.19361 -0.45294,-0.4132 -0.0675,-0.27071 -0.0727,-0.56532 0.0161,-0.83181 0.0904,-0.27642 0.35909,-0.45538 0.63821,-0.4977 0.24352,-0.0499 0.49081,0.003 0.73636,0.004 0.88151,0.0384 1.79172,0.0188 2.62384,-0.3082 0.5597,-0.23522 1.0827,-0.5916 1.43701,-1.09192 0.26261,-0.34618 0.44216,-0.7494 0.54413,-1.17074 0.0794,-0.3003 0.1008,-0.6131 0.079,-0.9222 -0.002,-0.19875 -4.8e-4,-0.39816 -0.0214,-0.59606 0.16503,-0.13885 0.39508,-0.18736 0.52649,-0.36678 0.12188,-0.1633 0.23112,-0.33963 0.28152,-0.53955 0.14477,-0.52325 0.16782,-1.07153 0.15392,-1.61143 -0.0156,-0.14498 -0.025,-0.32587 -0.15823,-0.41556 -0.15832,-0.0741 -0.24694,0.13594 -0.31457,0.24234 -0.12178,0.20886 -0.16856,0.45673 -0.32783,0.6438 -0.15565,0.19976 -0.35868,0.3763 -0.61232,0.43162 -0.35519,0.0983 -0.72858,0.0275 -1.0675,-0.0961 -0.35817,-0.12125 -0.67799,-0.33533 -1.04588,-0.43079 -0.51255,-0.14602 -1.04883,-0.20501 -1.58099,-0.19677 -0.8851,0.0206 -1.78659,0.25556 -2.50345,0.79098 -0.45653,0.3212 -0.83059,0.76661 -1.03067,1.29063 -0.2455,0.641 -0.28503,1.35446 -0.15049,2.02502 0.0746,0.36877 0.24335,0.71653 0.49174,0.99957 0.34346,0.41273 0.7783,0.7395 1.23672,1.01428 -0.49934,0.33026 -0.91165,0.81919 -1.06839,1.40473 -0.13866,0.50239 -0.11073,1.04133 0.0237,1.54132 0.0672,0.24893 0.19788,0.47553 0.36641,0.66933 0.13747,0.18852 0.31868,0.33832 0.46343,0.52036 -0.24364,-5e-5 -0.46271,0.13033 -0.67442,0.23699 -0.23671,0.13269 -0.49179,0.255 -0.65761,0.47904 -0.24538,0.316 -0.33653,0.73171 -0.317,1.12557 0.0217,0.35728 0.20021,0.69572 0.47477,0.92373 0.34614,0.31626 0.77876,0.53477 1.23777,0.62926 0.50227,0.12291 1.01529,0.19981 1.52981,0.24758 0.0846,0.006 0.16946,0.0101 0.25433,0.0101"
         id="path3008"
         inkscape:connector-curvature="0" />
    </g>
    <g
       transform="matrix(0,3.9093698,3.9093698,0,-769.58503,-766.28551)"
       style="font-size:14px;font-style:normal;font-variant:normal;font-weight:normal;font-stretch:normal;text-indent:0;text-align:start;text-decoration:none;line-height:125%;letter-spacing:normal;word-spacing:normal;text-transform:none;direction:ltr;block-progression:tb;writing-mode:lr-tb;text-anchor:start;color:#000000;fill:#ff004a;fill-opacity:1;fill-rule:nonzero;stroke:none;stroke-width:0.99921262;marker:none;visibility:visible;display:inline;overflow:visible;enable-background:accumulate;font-family:Goudy;-inkscape-font-specification:Goudy"
       id="text2996"
       inkscape:export-filename="/home/hmmr/P/C/Aghermann/data/ui/text2985.png"
       inkscape:export-xdpi="90"
       inkscape:export-ydpi="90">
      <path
         style="fill:#ff004a;fill-opacity:1;marker:none"
         d="m 264.09764,281.24954 c 0,-1.73177 0,-3.46354 0,-5.19531 0.0129,-0.13161 -0.0967,-0.27573 -0.23889,-0.2155 -0.43097,0.10587 -0.75966,0.4236 -1.13125,0.64665 -0.33313,0.21546 -0.70188,0.36869 -1.08345,0.4744 -0.35339,0.10509 -0.7142,0.18234 -1.07203,0.26978 -0.17988,0.074 -0.0575,0.25288 0.1131,0.25677 0.40329,0.009 1.59882,-0.57891 1.95706,-0.58806 0.1738,-0.004 0.29515,0.0982 0.34847,0.18815 0.12352,0.20835 0.0792,0.45496 0.0884,0.68464 -2.9e-4,2.54104 5.7e-4,5.08209 -4.3e-4,7.62313 0.002,0.16393 -0.0654,0.33348 -0.21117,0.41969 -0.15866,0.11674 -0.36296,0.13596 -0.5348,0.22463 -0.18956,0.11328 -0.009,0.35338 0.1699,0.26778 0.43841,-0.0281 0.8782,-0.0503 1.3175,-0.041 0.44399,0.0133 0.88784,0.0353 1.33167,0.0496 0.15256,0.0219 0.26362,-0.21863 0.1111,-0.29019 -0.14588,-0.054 -0.30757,-0.0373 -0.45719,-0.0803 -0.31767,-0.0464 -0.62199,-0.28423 -0.68015,-0.61058 -0.0461,-0.24649 -0.0217,-0.49849 -0.0279,-0.74778 0.001,-0.84348 -0.002,-1.68709 0.002,-2.53049 0.0154,-0.34391 0.23469,-0.64732 0.51728,-0.82994 0.38286,-0.26277 0.84857,-0.45514 1.32078,-0.38683 0.31683,0.0544 0.61245,0.2026 0.8745,0.38419 0.36101,0.3107 0.55496,0.77763 0.59974,1.24527 0.0367,0.36329 0.0166,0.72896 0.0218,1.09343 -9.9e-4,0.8933 0.002,1.78667 -0.002,2.67991 -0.003,0.19076 -0.16338,0.32871 -0.31811,0.41296 -0.11851,0.0587 -0.25703,0.0978 -0.34668,0.19823 -0.0768,0.13728 0.098,0.24217 0.21953,0.20969 0.44878,-0.0457 0.90106,-0.0521 1.35187,-0.05 0.34934,-10e-4 0.69602,0.0625 1.04534,0.0503 0.13696,0.006 0.24139,-0.15426 0.15977,-0.27078 -0.0901,-0.13667 -0.27585,-0.1316 -0.42004,-0.15768 -0.2215,-0.0162 -0.44789,-0.10112 -0.59953,-0.26673 -0.10622,-0.15841 -0.0629,-0.35542 -0.0721,-0.53466 -9.6e-4,-0.97875 0.002,-1.95753 -0.002,-2.93625 -0.0165,-0.45351 -0.0702,-0.91628 -0.26544,-1.33153 -0.20345,-0.46577 -0.54953,-0.882 -1.00908,-1.11033 -0.37579,-0.16997 -0.79849,-0.22241 -1.20745,-0.19424 -0.42958,0.0359 -0.84608,0.19294 -1.19426,0.44678 -0.23962,0.1622 -0.46695,0.34282 -0.67676,0.54217 z"
         id="path3001"
         inkscape:connector-curvature="0"
         sodipodi:nodetypes="ccccccssscccccccccccccccccccccccccccccccccc" />
    </g>
  </g>
</svg>
