<?xml version="1.0" encoding="UTF-8" standalone="no"?>
<!-- Created with Inkscape (http://www.inkscape.org/) -->

<svg
   xmlns:dc="http://purl.org/dc/elements/1.1/"
   xmlns:cc="http://creativecommons.org/ns#"
   xmlns:rdf="http://www.w3.org/1999/02/22-rdf-syntax-ns#"
   xmlns:svg="http://www.w3.org/2000/svg"
   xmlns="http://www.w3.org/2000/svg"
   xmlns:sodipodi="http://sodipodi.sourceforge.net/DTD/sodipodi-0.dtd"
   xmlns:inkscape="http://www.inkscape.org/namespaces/inkscape"
   inkscape:export-ydpi="90"
   inkscape:export-xdpi="90"
   inkscape:export-filename="/home/hmmr/P/C/Aghermann/data/ui/aghermann.png"
   sodipodi:docname="edfhed-gtk.svg"
   inkscape:version="0.48.5 r10040"
   version="1.1"
   id="svg2"
   height="128"
   width="128">
  <defs
     id="defs4" />
  <sodipodi:namedview
     id="base"
     pagecolor="#ffffff"
     bordercolor="#666666"
     borderopacity="1.0"
     inkscape:pageopacity="0.0"
     inkscape:pageshadow="2"
     inkscape:zoom="4"
     inkscape:cx="79.54691"
     inkscape:cy="58.488121"
     inkscape:document-units="px"
     inkscape:current-layer="layer1"
     showgrid="false"
     fit-margin-top="1.4"
     fit-margin-left="1.4"
     fit-margin-right="1.4"
     fit-margin-bottom="1.4"
     inkscape:window-width="1211"
     inkscape:window-height="887"
     inkscape:window-x="414"
     inkscape:window-y="71"
     inkscape:window-maximized="0" />
  <metadata
     id="metadata7">
    <rdf:RDF>
      <cc:Work
         rdf:about="">
        <dc:format>image/svg+xml</dc:format>
        <dc:type
           rdf:resource="http://purl.org/dc/dcmitype/StillImage" />
        <dc:title />
      </cc:Work>
    </rdf:RDF>
  </metadata>
  <g
     inkscape:label="Layer 1"
     inkscape:groupmode="layer"
     id="layer1"
     transform="translate(-240.24595,-167.74433)">
    <path
       inkscape:connector-curvature="0"
       id="path3063"
       style="font-size:36px;font-style:normal;font-variant:normal;font-weight:bold;font-stretch:normal;text-indent:0;text-align:center;text-decoration:none;line-height:125%;letter-spacing:normal;word-spacing:normal;text-transform:none;direction:ltr;block-progression:tb;writing-mode:lr-tb;text-anchor:middle;color:#000000;fill:#ff2400;fill-opacity:1;fill-rule:nonzero;stroke:#460000;stroke-width:0.2;stroke-linecap:butt;stroke-linejoin:bevel;stroke-miterlimit:3.70000005;stroke-opacity:1;stroke-dasharray:none;stroke-dashoffset:0;marker:none;visibility:visible;font-family:Sorts Mill Goudy;-inkscape-font-specification:Sorts Mill Goudy Bold"
       d="m 272.58601,203.36216 0.108,-7.97612 c 0,-0.82986 -0.024,-2.22838 -0.072,-4.19554 -0.024,-0.89133 -0.324,-1.5829 -0.9,-2.07471 -0.576,-0.49176 -1.248,-0.75302 -2.016,-0.78379 -0.384,3e-5 -0.576,-0.2766 -0.576,-0.82988 0,-0.43027 0.336,-0.64543 1.008,-0.64547 l 0.972,0.0922 8.784,0.23053 7.2,-0.18442 c 0.45598,3e-5 0.68398,0.3535 0.684,1.06041 -2e-5,0.18444 -0.072,0.79917 -0.216,1.84419 -0.14402,1.01433 -0.21602,1.81348 -0.216,2.39745 -2e-5,0.98359 -0.19202,1.47537 -0.576,1.47535 -0.36001,2e-5 -0.54001,-0.36881 -0.54,-1.10652 -10e-6,-0.73765 -0.20401,-1.44459 -0.612,-2.12082 -0.40801,-0.67617 -0.91201,-1.02964 -1.512,-1.06041 -2.16001,-0.21513 -3.81601,-0.3227 -4.968,-0.32273 l -0.936,0 c -1.24801,3e-5 -1.968,0.10758 -2.16,0.32273 -0.36,0.3996 -0.54,3.79599 -0.54,10.18916 0,1.53684 0.228,2.32062 0.684,2.35134 l 3.528,0 c 1.43999,2e-5 2.39999,-0.0615 2.88,-0.18441 1.24799,-0.30736 1.95599,-1.10651 2.124,-2.39745 0.072,-0.5225 0.22799,-0.78376 0.468,-0.78378 0.23999,2e-5 0.38399,0.0461 0.432,0.13831 0.048,0.0922 0.072,0.29202 0.072,0.59936 l -0.288,4.841 0.108,2.8124 c -1e-5,0.76842 -0.084,1.15263 -0.252,1.15261 -0.36001,2e-5 -0.62401,-0.36882 -0.792,-1.10651 -0.33601,-1.29092 -0.63601,-2.04397 -0.9,-2.25913 -0.50401,-0.4303 -1.38001,-0.64546 -2.628,-0.64547 l -2.592,0 -1.152,-0.0461 -0.252,0 c -0.984,2e-5 -1.476,0.29201 -1.476,0.87599 l -0.072,6.63909 0,1.84419 c 0,2.21303 0.288,3.44249 0.864,3.68839 0.6,0.21515 1.11599,0.32273 1.548,0.32273 3.59999,0 6.20399,-0.36884 7.812,-1.10651 1.41598,-0.67621 2.27998,-1.38315 2.592,-2.12082 0.28798,-0.76842 0.55198,-1.15262 0.792,-1.15262 0.28798,0 0.43198,0.26126 0.432,0.78378 -2e-5,1.32167 -0.51602,2.65871 -1.548,4.01111 -1.03201,1.35241 -1.93201,2.02861 -2.7,2.02861 -1.72801,0 -3.68401,-0.0768 -5.868,-0.23052 -2.16001,-0.15368 -3.504,-0.23052 -4.032,-0.23052 l -4.896,0.41494 c -0.504,0 -0.756,-0.15368 -0.756,-0.46105 l 0,-0.55326 c 0,-0.18442 0.12,-0.30736 0.36,-0.36884 0.264,-0.0307 0.672,-0.21515 1.224,-0.55325 0.552,-0.3381 0.912,-1.04504 1.08,-2.12082 0.192,-1.07578 0.288,-3.3349 0.288,-6.7774 l 0,-5.717" />
    <path
       inkscape:connector-curvature="0"
       id="path3065"
       style="font-size:36px;font-style:normal;font-variant:normal;font-weight:bold;font-stretch:normal;text-indent:0;text-align:center;text-decoration:none;line-height:125%;letter-spacing:normal;word-spacing:normal;text-transform:none;direction:ltr;block-progression:tb;writing-mode:lr-tb;text-anchor:middle;color:#000000;fill:#ff2400;fill-opacity:1;fill-rule:nonzero;stroke:#460000;stroke-width:0.2;stroke-linecap:butt;stroke-linejoin:bevel;stroke-miterlimit:3.70000005;stroke-opacity:1;stroke-dasharray:none;stroke-dashoffset:0;marker:none;visibility:visible;font-family:Sorts Mill Goudy;-inkscape-font-specification:Sorts Mill Goudy Bold"
       d="m 294.24057,202.7167 -0.036,-11.71062 c 0,-0.52249 -0.204,-1.04501 -0.612,-1.56756 -0.384,-0.55323 -0.78,-0.84523 -1.188,-0.87599 -0.408,-0.0307 -0.696,-0.0615 -0.864,-0.0922 -0.144,-0.0307 -0.3,-0.12295 -0.468,-0.27663 -0.144,-0.18439 -0.216,-0.41492 -0.216,-0.69157 0,-0.30733 0.096,-0.47638 0.288,-0.50715 0.216,-0.0615 0.732,-0.0922 1.548,-0.0922 l 3.132,0 7.02,-0.18442 c 3.47999,4e-5 6.65999,1.26022 9.54,3.78059 1.39198,1.19875 2.51998,2.78168 3.384,4.74879 0.86398,1.93643 1.29598,4.04188 1.296,6.31636 -2e-5,2.27451 -0.12002,4.21091 -0.36,5.8092 -0.21602,1.56757 -0.58802,2.93535 -1.116,4.10332 -0.52802,1.13727 -1.05602,2.07472 -1.584,2.8124 -0.52802,0.70694 -1.20002,1.49072 -2.016,2.35134 -0.81602,0.86062 -1.90802,1.61367 -3.27599,2.25913 -1.36802,0.64547 -2.77202,0.9682 -4.21201,0.9682 l -8.64,-0.23052 c -0.84,0 -1.62,0.0307 -2.34,0.0922 -0.72,0.0922 -1.14,0.13831 -1.26,0.13831 -0.576,0 -0.864,-0.19978 -0.864,-0.59936 0,-0.24589 0.036,-0.41494 0.108,-0.50715 0.096,-0.12295 0.276,-0.23053 0.54,-0.32273 0.288,-0.0922 0.492,-0.16906 0.612,-0.23053 0.384,-0.21515 0.732,-0.61473 1.044,-1.19872 0.336,-0.61473 0.504,-1.2141 0.504,-1.79809 0,0 0.012,-4.16478 0.036,-12.49439 m 3.024,0.69157 -0.036,9.82032 c 0,1.44461 0.12,2.47429 0.36,3.08902 0.12,0.27662 0.348,0.47641 0.684,0.59936 0.336,0.12294 0.72,0.26126 1.152,0.41494 0.43199,0.15368 0.92399,0.3381 1.476,0.55326 0.57599,0.18442 1.31999,0.27663 2.232,0.27663 l 0.72,0 c 1.63199,0 3.02399,-0.292 4.176,-0.87599 1.15199,-0.61473 2.25598,-1.56757 3.312,-2.8585 1.77598,-2.18228 2.66398,-5.71698 2.664,-10.6041 -2e-5,-2.45891 -0.38402,-4.68729 -1.152,-6.68519 -0.74402,-1.99785 -1.72802,-3.59615 -2.952,-4.7949 -2.52001,-2.42816 -5.26801,-3.64225 -8.244,-3.64228 l -1.44,0 c -1.152,3e-5 -1.92,0.26129 -2.304,0.78378 -0.192,0.24592 -0.312,0.46108 -0.36,0.64547 -0.024,0.18445 -0.072,0.55328 -0.144,1.10652 -0.048,0.52254 -0.072,0.98359 -0.072,1.38314 l 0,1.9364 -0.072,8.85212" />
    <path
       inkscape:connector-curvature="0"
       id="path3067"
       style="font-size:36px;font-style:normal;font-variant:normal;font-weight:bold;font-stretch:normal;text-indent:0;text-align:center;text-decoration:none;line-height:125%;letter-spacing:normal;word-spacing:normal;text-transform:none;direction:ltr;block-progression:tb;writing-mode:lr-tb;text-anchor:middle;color:#000000;fill:#ff2400;fill-opacity:1;fill-rule:nonzero;stroke:#460000;stroke-width:0.2;stroke-linecap:butt;stroke-linejoin:bevel;stroke-miterlimit:3.70000005;stroke-opacity:1;stroke-dasharray:none;stroke-dashoffset:0;marker:none;visibility:visible;font-family:Sorts Mill Goudy;-inkscape-font-specification:Sorts Mill Goudy Bold"
       d="m 319.40345,187.59433 c 0,-0.21512 0.096,-0.39954 0.288,-0.55326 0.192,-0.15364 0.408,-0.23048 0.648,-0.23052 l 0.972,0 c 0.576,4e-5 1.5,0.0461 2.772,0.13831 1.29599,0.0922 2.97599,0.13835 5.04,0.13832 l 8.172,-0.23053 c 0.40798,4e-5 0.61198,0.36888 0.612,1.10652 -2e-5,0.3996 -0.072,1.12191 -0.216,2.16692 -0.14402,1.04507 -0.24002,1.89032 -0.288,2.53576 -0.048,0.61476 -0.24002,0.92213 -0.576,0.9221 -0.31202,3e-5 -0.46802,-0.30734 -0.468,-0.9221 -2e-5,-2.02858 -0.55202,-3.08899 -1.656,-3.18123 -3.62401,-0.36881 -5.88001,-0.55323 -6.768,-0.55325 -0.88801,2e-5 -1.46401,0.16907 -1.728,0.50715 -0.24001,0.33813 -0.37201,1.0297 -0.396,2.07471 l 0,0.36884 c -0.072,1.6598 -0.10801,4.2263 -0.108,7.6995 -10e-6,1.5061 0.21599,2.27452 0.648,2.30524 l 0.9,0.0461 1.548,-0.0461 1.116,0 c 1.43999,1e-5 2.38799,-0.0461 2.844,-0.13831 0.47999,-0.12295 0.86398,-0.30736 1.152,-0.55326 0.31198,-0.27662 0.52798,-0.53788 0.648,-0.78378 0.11998,-0.24587 0.20398,-0.53787 0.252,-0.87599 0.048,-0.33808 0.10798,-0.58397 0.18,-0.73768 0.072,-0.15366 0.21598,-0.2305 0.432,-0.23052 0.21598,2e-5 0.34798,0.0461 0.396,0.13831 0.048,0.0922 0.072,0.27665 0.072,0.55326 -2e-5,0.24592 -0.06,0.79917 -0.18,1.65977 -0.096,0.86063 -0.14402,1.59831 -0.144,2.21303 l 0.252,3.78059 c -2e-5,0.4918 -0.048,0.81453 -0.144,0.9682 -0.072,0.12295 -0.19202,0.18443 -0.36,0.18442 -0.40802,1e-5 -0.66002,-0.38419 -0.756,-1.15262 -2e-5,-0.67619 -0.06,-1.15261 -0.18,-1.42925 -0.24002,-0.4303 -0.49202,-0.70692 -0.756,-0.82988 -0.24002,-0.15367 -0.79201,-0.29199 -1.656,-0.41495 -0.86401,-0.12294 -1.42801,-0.1844 -1.692,-0.18442 l -3.132,0 c -0.98401,2e-5 -1.47601,0.29201 -1.476,0.876 l -0.072,6.63908 -0.036,1.84419 c -1e-5,0.61473 0.048,1.22947 0.144,1.8442 0.096,0.61473 0.37199,1.26019 0.828,1.9364 0.47999,0.6762 1.09199,1.0143 1.836,1.0143 0.76799,0 1.15199,0.27663 1.152,0.82989 -1e-5,0.27663 -0.12001,0.49178 -0.36,0.64546 -0.21601,0.15369 -0.46801,0.23053 -0.756,0.23053 l -3.492,-0.36884 -4.356,0.27663 c -0.48,0 -0.72,-0.16905 -0.72,-0.50715 0,-0.39958 0.048,-0.64547 0.144,-0.73768 0.12,-0.0922 0.588,-0.32273 1.404,-0.69157 0.624,-0.27663 1.008,-1.10652 1.152,-2.48966 0.168,-1.56756 0.252,-5.6094 0.252,-12.12556 l 0.108,-8.02223 0,-2.67408 c 0,-2.02858 -0.564,-3.38099 -1.692,-4.05722 -0.336,-0.18439 -0.72,-0.2766 -1.152,-0.27662 -0.432,2e-5 -0.648,-0.21513 -0.648,-0.64547" />
    <path
       inkscape:connector-curvature="0"
       id="path3069"
       style="font-size:36px;font-style:normal;font-variant:normal;font-weight:bold;font-stretch:normal;text-indent:0;text-align:center;text-decoration:none;line-height:125%;letter-spacing:normal;word-spacing:normal;text-transform:none;direction:ltr;block-progression:tb;writing-mode:lr-tb;text-anchor:middle;color:#000000;fill:#008ce6;fill-opacity:1;fill-rule:nonzero;stroke:#460000;stroke-width:0.2;stroke-linecap:butt;stroke-miterlimit:3.70000005;stroke-opacity:1;stroke-dasharray:none;stroke-dashoffset:0;marker:none;visibility:visible;font-family:Sorts Mill Goudy;-inkscape-font-specification:Sorts Mill Goudy Bold"
       d="m 261.33371,264.73739 -4.75995,0.42932 c -1.11735,0 -1.69838,-0.0858 -1.74307,-0.25759 -0.0447,-0.17173 -0.067,-0.37205 -0.067,-0.60101 0,-0.57239 0.26817,-0.94446 0.80449,-1.11617 1.29614,-0.45793 2.12299,-1.17341 2.48054,-2.14649 0.40226,-1.0303 0.60337,-2.51854 0.60337,-4.46468 l 0.26818,-29.27801 0,-4.20711 c 0,-7.78452 -0.13409,-12.5354 -0.40226,-14.25264 -0.26816,-1.71713 -1.07266,-2.57573 -2.4135,-2.57579 l -0.87153,0 -0.26816,-0.0858 c -0.75981,6e-5 -1.13971,-0.25752 -1.13971,-0.77273 0,-0.51509 0.22347,-0.91578 0.67042,-1.20203 0.49163,-0.34336 1.16204,-0.65818 2.01124,-0.94444 0.89389,-0.28613 2.14532,-0.88715 3.75432,-1.80304 1.609,-0.91577 2.61463,-1.37368 3.01687,-1.37376 0.58103,8e-5 0.87154,0.65832 0.87154,1.97477 0,0.28626 -0.0894,0.97313 -0.26816,2.06063 -0.13409,1.08758 -0.22348,3.20544 -0.26817,6.35357 0,3.09099 -0.0447,6.43949 -0.13409,10.04553 -0.0447,3.5489 -0.0893,5.95297 -0.13407,7.21219 -0.0894,2.40408 -0.13409,4.09265 -0.13409,5.0657 0,0.97309 0.17878,1.45963 0.53633,1.45961 0.0894,2e-5 0.53634,-0.51514 1.34083,-1.54548 0.84919,-1.08752 1.98888,-2.14646 3.41912,-3.17679 1.4749,-1.08752 3.03919,-1.63127 4.69291,-1.63132 3.62022,5e-5 6.43596,1.37376 8.44722,4.12124 2.01124,2.74751 3.01686,7.01187 3.01687,12.79304 l 0,12.44959 c -10e-6,1.54547 0.22345,2.7475 0.67042,3.60609 0.44691,0.8586 0.96089,1.31651 1.54196,1.37374 2.41345,0.28621 3.6202,0.88722 3.62023,1.80304 -3e-5,0.91585 -0.69279,1.37376 -2.07828,1.37376 l -5.63149,-0.42929 -5.16219,0.25756 c -1.028,0 -1.54198,-0.28618 -1.54196,-0.85857 -2e-5,-1.03033 0.60336,-1.54548 1.81012,-1.54548 0.44693,0 0.84918,-0.31481 1.20675,-0.94445 0.40223,-0.62963 0.60336,-1.60271 0.60337,-2.91922 l 0.067,-2.23233 0.067,-12.0203 c -2e-5,-3.49159 -0.82686,-6.49666 -2.48053,-9.01524 -1.65371,-2.57575 -3.57556,-3.86363 -5.76557,-3.86367 -2.14534,4e-5 -4.33537,1.1162 -6.57007,3.34853 -0.8045,0.80137 -1.31848,2.11787 -1.54196,3.94952 -0.22346,1.77446 -0.3352,5.75259 -0.3352,11.93444 l 0,1.97477 c 0,2.57578 0.15643,4.66501 0.46929,6.26773 0.49164,2.23233 1.72074,3.43436 3.68729,3.60609 0.6257,0.0572 1.09499,0.17171 1.40787,0.34344 0.35753,0.11436 0.53631,0.40067 0.53633,0.85858 -2e-5,0.68688 -0.24584,1.03032 -0.73746,1.03032 l -1.74308,-0.0858 c -1.16205,-0.0572 -2.34646,-0.11436 -3.5532,-0.17171 -1.16206,-0.11437 -1.78777,-0.17173 -1.87716,-0.17173" />
    <path
       inkscape:connector-curvature="0"
       id="path3073"
       style="font-size:36px;font-style:normal;font-variant:normal;font-weight:bold;font-stretch:normal;text-indent:0;text-align:center;text-decoration:none;line-height:125%;letter-spacing:normal;word-spacing:normal;text-transform:none;direction:ltr;block-progression:tb;writing-mode:lr-tb;text-anchor:middle;color:#000000;fill:#008ce6;fill-opacity:1;fill-rule:nonzero;stroke:#460000;stroke-width:0.2;stroke-linecap:butt;stroke-miterlimit:3.70000005;stroke-opacity:1;stroke-dasharray:none;stroke-dashoffset:0;marker:none;visibility:visible;font-family:Sorts Mill Goudy;-inkscape-font-specification:Sorts Mill Goudy Bold"
       d="m 344.20506,264.49054 -0.19882,-3.14055 c -4e-5,-0.96197 -0.19886,-1.44295 -0.59651,-1.44295 -0.13256,0 -0.46395,0.28293 -0.99416,0.84878 -0.48604,0.56588 -1.06044,1.21662 -1.72319,1.95225 -0.66278,0.67904 -1.63484,1.3015 -2.91618,1.86736 -1.23718,0.56586 -2.5848,0.8488 -4.04289,0.8488 -4.10915,0 -7.31254,-1.72591 -9.61013,-5.17768 -2.2976,-3.50837 -3.4464,-7.83723 -3.4464,-12.98663 0,-5.20595 1.4139,-9.87435 4.24174,-14.0052 2.87197,-4.13078 6.82649,-6.19617 11.86353,-6.19624 1.14878,7e-5 2.65105,0.42446 4.50684,1.2732 1.8999,0.79226 2.93824,1.18835 3.11501,1.18832 0.17673,3e-5 0.26507,-1.01853 0.26511,-3.05568 l 0.13255,-10.9495 c -3e-5,-3.05563 -0.13255,-5.20593 -0.39766,-6.45088 -0.22096,-1.24487 -0.59652,-2.06537 -1.12673,-2.46152 -0.48604,-0.39603 -1.14881,-0.59409 -1.98828,-0.59416 l -0.72906,0 c -0.66279,7e-5 -1.06045,-0.0283 -1.19298,-0.0848 -0.13256,-0.0566 -0.19886,-0.25459 -0.19884,-0.59417 l 0,-0.0848 c -2e-5,-0.39606 0.22091,-0.67899 0.66278,-0.8488 0.44182,-0.22635 1.32551,-0.59409 2.65106,-1.10344 1.36971,-0.5658 2.43013,-1.07508 3.1813,-1.52784 0.79529,-0.45262 1.39179,-0.79214 1.78947,-1.01855 0.83949,-0.56581 1.43597,-0.84873 1.78947,-0.84881 0.5302,8e-5 0.7953,0.56594 0.79534,1.69759 -4e-5,0.16977 -0.15464,2.57475 -0.46394,7.21481 -0.26515,4.64014 -0.39769,8.37486 -0.39768,11.20416 l -0.13255,30.98118 c -2e-5,3.84789 0.13255,6.42259 0.39767,7.72406 0.30927,1.3015 0.94994,2.1503 1.92202,2.54641 0.13256,0.0566 0.5081,0.16975 1.12672,0.33952 0.61855,0.11308 1.0604,0.28293 1.32552,0.50928 0.26507,0.16977 0.39763,0.48099 0.39766,0.93367 -3e-5,0.67905 -1.70112,1.18834 -5.10332,1.52785 -0.70697,0.0566 -1.52438,0.19806 -2.45222,0.42439 -0.92791,0.28295 -1.50231,0.42441 -1.72321,0.42441 -0.48606,0 -0.72907,-0.31123 -0.72903,-0.93369 m -9.54388,-34.97053 c -2.872,2e-5 -5.12541,1.3581 -6.76022,4.07424 -1.63485,2.65959 -2.45226,6.08309 -2.45226,10.27046 0,4.18744 1.01624,8.09189 3.04874,11.71343 2.07667,3.62156 4.72774,5.43233 7.95322,5.43233 1.98828,0 3.79985,-0.65075 5.43469,-1.95223 1.63481,-1.3015 2.45223,-2.88592 2.45226,-4.75328 l 0.0662,-14.51447 c -3e-5,-3.45177 -0.61862,-5.63035 -1.85577,-6.53577 -3.26968,-2.48978 -5.89866,-3.73469 -7.88695,-3.73471" />
    <path
       d="m 299.08601,248.8266 0.108,-7.97613 c 0,-0.82986 -0.024,-2.22837 -0.072,-4.19553 -0.024,-0.89134 -0.324,-1.58291 -0.9,-2.07472 -0.576,-0.49176 -1.248,-0.75302 -2.016,-0.78378 -0.384,3e-5 -0.576,-0.2766 -0.576,-0.82989 0,-0.43027 0.336,-0.64543 1.008,-0.64546 l 0.972,0.0922 8.784,0.23052 7.2,-0.18442 c 0.45598,4e-5 0.68398,0.35351 0.684,1.06041 -2e-5,0.18445 -0.072,0.79918 -0.216,1.84419 -0.14402,1.01433 -0.21602,1.81348 -0.216,2.39745 -2e-5,0.98359 -0.19202,1.47538 -0.576,1.47535 -0.36001,3e-5 -0.54001,-0.36881 -0.54,-1.10651 -10e-6,-0.73765 -0.20401,-1.44459 -0.612,-2.12082 -0.40801,-0.67618 -0.91201,-1.02965 -1.512,-1.06041 -2.16001,-0.21513 -3.81601,-0.32271 -4.968,-0.32273 l -0.936,0 c -1.24801,2e-5 -1.968,0.10757 -2.16,0.32273 -0.36,0.3996 -0.54,3.79598 -0.54,10.18916 0,1.53683 0.228,2.32062 0.684,2.35134 l 3.528,0 c 1.43999,1e-5 2.39999,-0.0615 2.88,-0.18442 1.24799,-0.30735 1.95599,-1.1065 2.124,-2.39745 0.072,-0.52249 0.22799,-0.78375 0.468,-0.78378 0.23999,3e-5 0.38399,0.0461 0.432,0.13831 0.048,0.0922 0.072,0.29203 0.072,0.59937 l -0.288,4.841 0.108,2.81239 c -1e-5,0.76843 -0.084,1.15263 -0.252,1.15262 -0.36001,1e-5 -0.62401,-0.36883 -0.792,-1.10652 -0.33601,-1.29092 -0.63601,-2.04396 -0.9,-2.25913 -0.50401,-0.4303 -1.38001,-0.64545 -2.628,-0.64547 l -2.592,0 -1.152,-0.0461 -0.252,0 c -0.984,1e-5 -1.476,0.29201 -1.476,0.87599 l -0.072,6.63909 0,1.84419 c 0,2.21303 0.288,3.44249 0.864,3.68838 0.6,0.21516 1.11599,0.32273 1.548,0.32273 3.59999,0 6.20399,-0.36883 7.812,-1.10651 1.41598,-0.6762 2.27998,-1.38314 2.592,-2.12082 0.28798,-0.76841 0.55198,-1.15262 0.792,-1.15262 0.28798,0 0.43198,0.26126 0.432,0.78378 -2e-5,1.32167 -0.51602,2.65871 -1.548,4.01112 -1.03201,1.3524 -1.93201,2.02861 -2.7,2.02861 -1.72801,0 -3.68401,-0.0768 -5.868,-0.23053 -2.16001,-0.15368 -3.504,-0.23052 -4.032,-0.23052 l -4.896,0.41494 c -0.504,0 -0.756,-0.15368 -0.756,-0.46104 l 0,-0.55326 c 0,-0.18442 0.12,-0.30737 0.36,-0.36884 0.264,-0.0307 0.672,-0.21516 1.224,-0.55326 0.552,-0.3381 0.912,-1.04504 1.08,-2.12082 0.192,-1.07578 0.288,-3.3349 0.288,-6.7774 l 0,-5.71699"
       style="font-size:36px;font-style:normal;font-variant:normal;font-weight:bold;font-stretch:normal;text-indent:0;text-align:center;text-decoration:none;line-height:125%;letter-spacing:normal;word-spacing:normal;text-transform:none;direction:ltr;block-progression:tb;writing-mode:lr-tb;text-anchor:middle;color:#000000;fill:#008ce6;fill-opacity:1;fill-rule:nonzero;stroke:#460000;stroke-width:0.2;stroke-linecap:butt;stroke-miterlimit:3.70000005;stroke-opacity:1;stroke-dasharray:none;stroke-dashoffset:0;marker:none;visibility:visible;font-family:Sorts Mill Goudy;-inkscape-font-specification:Sorts Mill Goudy Bold"
       id="path3081"
       inkscape:connector-curvature="0" />
  </g>
</svg>
