/* XPM */
static char *thunderbird[] = {
/* columns rows colors chars-per-pixel */
"32 32 207 2 ",
"   c #04002A",
".  c #070134",
"X  c #0B063D",
"o  c #09083D",
"O  c #100A3A",
"+  c #18103F",
"@  c #242536",
"#  c #0C0B46",
"$  c #0D0C4D",
"%  c #060C41",
"&  c #110946",
"*  c #191545",
"=  c #0E0F51",
"-  c #0E1552",
";  c #0B1857",
":  c #131B5A",
">  c #161957",
",  c #0B134C",
"<  c #0B215A",
"1  c #1E3353",
"2  c #202E4F",
"3  c #3A3756",
"4  c #36334A",
"5  c #111760",
"6  c #0D2569",
"7  c #192464",
"8  c #132B66",
"9  c #1A2A66",
"0  c #1A3467",
"q  c #0A2B75",
"w  c #132876",
"e  c #0C377D",
"r  c #183678",
"t  c #0A346C",
"y  c #363061",
"u  c #253C74",
"i  c #2B3276",
"p  c #3E4049",
"a  c #17437F",
"s  c #354463",
"d  c #2A487B",
"f  c #355271",
"g  c #224369",
"h  c #484440",
"j  c #404551",
"k  c #514B51",
"l  c #4F5056",
"z  c #525B5E",
"x  c #625853",
"c  c #585B6B",
"v  c #51506C",
"b  c #625F63",
"n  c #686869",
"m  c #706769",
"M  c #6C6C76",
"N  c #746B7A",
"B  c #91847B",
"V  c #143A8A",
"C  c #0A4285",
"Z  c #1B448C",
"A  c #1B468E",
"S  c #0D4995",
"D  c #0A4492",
"F  c #134E9C",
"G  c #174793",
"H  c #0C569B",
"J  c #1B549B",
"K  c #1B5A9D",
"L  c #12579E",
"P  c #1A5A8D",
"I  c #244687",
"U  c #35598E",
"Y  c #3B5C8D",
"T  c #395785",
"R  c #22589F",
"E  c #2B5B9F",
"W  c #265593",
"Q  c #345494",
"!  c #28538A",
"~  c #1F649D",
"^  c #356295",
"/  c #185AA1",
"(  c #285FA1",
")  c #1863A6",
"_  c #1A6BBA",
"`  c #1E6BB6",
"'  c #1F71B4",
"]  c #2564A4",
"[  c #226CAA",
"{  c #2C6BA9",
"}  c #2566A6",
"|  c #326AAA",
" . c #3B64A3",
".. c #2675AE",
"X. c #3272AC",
"o. c #3979AF",
"O. c #236FB7",
"+. c #2372B4",
"@. c #2B75B3",
"#. c #2373BC",
"$. c #2B7CBC",
"%. c #287BB9",
"&. c #367BB5",
"*. c #475A87",
"=. c #525386",
"-. c #567A9D",
";. c #7A7490",
":. c #4072AD",
">. c #427BB3",
",. c #4E7DB2",
"<. c #2A7DC1",
"1. c #2678C2",
"2. c #2E81BE",
"3. c #3E83B5",
"4. c #3483BD",
"5. c #3A81BA",
"6. c #3A88BA",
"7. c #7D818C",
"8. c #4E84AB",
"9. c #5082AE",
"0. c #468CBF",
"q. c #4D8EBF",
"w. c #4285B9",
"e. c #5189B5",
"r. c #4B91BE",
"t. c #5392BD",
"y. c #5B96BD",
"u. c #4F98AB",
"i. c #7C91A1",
"p. c #6393B9",
"a. c #2D83C3",
"s. c #3285C2",
"d. c #3C8AC4",
"f. c #388AC6",
"g. c #3994C8",
"h. c #448CC6",
"j. c #4391C9",
"k. c #4992C7",
"l. c #5996C1",
"z. c #5B9DC4",
"x. c #549ACA",
"c. c #5696C2",
"v. c #5D9DD0",
"b. c #4B9BD1",
"n. c #669BC1",
"m. c #4DA2C9",
"M. c #68A8CB",
"N. c #67A4C7",
"B. c #77B2CE",
"V. c #7AB8D6",
"C. c #74A1C6",
"Z. c #888584",
"A. c #918E8D",
"S. c #97928C",
"D. c #8F8A93",
"F. c #979694",
"G. c #978E93",
"H. c #A99D94",
"J. c #AAA19C",
"K. c #B9AA9C",
"L. c #A198A0",
"P. c #ACA6A3",
"I. c #A9A8A8",
"U. c #B8B2AA",
"Y. c #A0A3B1",
"T. c #BBB9B4",
"R. c #BDBAB7",
"E. c #B4ACA8",
"W. c #C2B5A6",
"Q. c #C4BEB6",
"!. c #D1C1AF",
"~. c #CDC2B3",
"^. c #C8C2BA",
"/. c #D2C9BC",
"(. c #D6C7B9",
"). c #DED0BE",
"_. c #B4BEC9",
"`. c #84C2DC",
"'. c #8CC5D9",
"]. c #C8C9C8",
"[. c #D4CDC3",
"{. c #D2CEC9",
"}. c #DCD2C4",
"|. c #DAD4CA",
" X c #DED8CE",
".X c #DED9D2",
"XX c #DBD7D2",
"oX c #E6DBCC",
"OX c #E0D3C3",
"+X c #E2DDD3",
"@X c #EBE3D6",
"#X c #E4E1DB",
"$X c #EAE5DC",
"%X c #F1EADE",
"&X c #E9E6E0",
"*X c #ECE9E2",
"=X c #E8E7E3",
"-X c #F3EDE4",
";X c #F1EFEA",
":X c #F6F0E7",
">X c #F5F2EA",
",X c #F9F5ED",
"<X c #FAF7F0",
"1X c #FCFAF4",
"2X c #FEFDF9",
"3X c #F5F4F2",
"4X c None",
/* pixels */
"4X4X4X4X4X4X4X4X4X4X4X4X4X4X4X4X4X4X4X4X4X4X4X4X4X4X4X4X4X4X4X4X",
"4X4X4X4X4X4X4X4X4X4X>.| >.l.4X4X4X4X4X4X4X4X4X4X4X4X4X4X4X4X4X4X",
"4X4X4X4X4X4X4X4X4Xk.X.q.N.V.B.z.3.} ) H H 4X4X4X4X4X4X4X4X4X4X4X",
"4X4X4X4X4X4X4X4Xh.x.M.V.V.M.k.o.[ ' +.@.+.+.' 4X4X4X4X4X4X4X4X4X",
"4X4X4X4X4X4X4X>.v.`.`.`.N.u.3.[ 2.6.4.2.2.' ' ' #.4X4X4X4X4X4X4X",
"4X4X4X4X4X4X| o.V.'.B.n.t.3...2.6.6.s.a.s.a.%.2.a.#.4X4X4X4X4X4X",
"4X4X4X4X4Xw.E C.'.N.8.e.r.) ) ..r.g.j.g.s.2.2.2.%.f.` 4X4X4X4X4X",
"4X4X4X4Xc.E Q '.p. .o.m.2.H a t t W f.s.a.f.2.%.4.d.a._ 4X4X4X4X",
"4X4X4Xz.@.8 s B. .3 8.g.H H S D q 6 t ' a.@.a.4.d.5.O.1.<.4X4X4X",
"4X4X4Xt.a @ z y.U l u.) C e e e q q ; 8 f.s.s.j.k.$._ 1.f.4X4X4X",
"4X4XN.X.2 h n e.{ 6.P 1 p l c M v 3 * + ! b.d.x.&.` ` 1.j.&.4X4X",
"4X4Xz.^ p n F.i.f g p b F.R.#X;X=X].F.n y x.5.0.` / +.<.j.5.4X4X",
"4X4Xl.d b Q.].;.n m 7.T.*X1X2X2X2X1X=XU.c 9.X.J #.O.O.h.k.o.4X4X",
"4Xo.l.d A.>X#XT.P.F.Q.;X2X2X2X2X2X1X<X#XF.Y K S $.$.@.k.<.R D 4X",
"4X( ,.U I.1X2X&XE.T.&X<X1X1X1X1X1X2X2X>XT.T J F >.<.&.x.} L S 4X",
"4X] W Y Y.<X<X>XQ.{.,X,X<X<X2X2X2X;X.X{.^.-./ V c.w.0.&.[ ] F 4X",
"4X{ I c Y.-X>X<X=X|.;X,X1X2X3X&XXXXX#X:X=Xp.J I l.o.{ ] X.} F 4X",
"4X| T Z.Q.$X,X,X<X-X#X-X&X.X.X$X;X>X,X:X+X,.w I >.J { } w.} L 4X",
"4X4X^ A.oX%X;X,X<X<X&X.X&X>X<X<X:X:X:X:X_.T c T G R &.] :.J / 4X",
"4X4XI M /.+X@X*X-X>X,X,X,X,X,X:X:X%X%X%X{.E.H.Q G | X.Z G J 4X4X",
"4X4Xr v H.[.|. X+X#X$X-X-X:X:X:X-X%X@X@XoX(.G.I w W G V Z / 4X4X",
"4X4X4X5 4 N L./.[.|.|. X X@X#X@X$X@X@XoXoX).;.5 - A V V Z ( 4X4X",
"4X4X4Xw & . * 3 N P.^./.[.[.[.}.}.}.}.}.)./.=.& : V 6 Z A 4X4X4X",
"4X4X4X4X5 X . . . * m J.U.^.~.~.~.~.~.!.!.H.w & - = V r I 4X4X4X",
"4X4X4X4X4X: X . 4X    4X4Xm S.K.W.W.W.W.W.=.> X & 9 r ; 4X4X4X4X",
"4X4X4X4X4X4X- X 4X4X4X4X4X4X4X4Xx B H.K.G.i > # > > % 4X4X4X4X4X",
"4X4X4X4X4X4X4Xo . 4X4X4X4X4X4X4X4X4X4Xb =.9 , 7 > o 4X4X4X4X4X4X",
"4X4X4X4X4X4X4X4X4X4X4X4X4X4X4X4X4X4X4X*.u < 9 r - 4X4X4X4X4X4X4X",
"4X4X4X4X4X4X4X4X4X4X4X4X4X4X4X4X4X4X*.u < 8 u 5 4X4X4X4X4X4X4X4X",
"4X4X4X4X4X4X4X4X4X4X4X4X4X4X4X4X0 d 8 < 0 0 4X4X4X4X4X4X4X4X4X4X",
"4X4X4X4X4X4X4X4X4X4X4X4X4X4X4X4X4X4X4X4X4X4X4X4X4X4X4X4X4X4X4X4X",
"4X4X4X4X4X4X4X4X4X4X4X4X4X4X4X4X4X4X4X4X4X4X4X4X4X4X4X4X4X4X4X4X"
};
